<?xml version="1.0" encoding="UTF-8"?>
<svg version="1.1" xmlns="http://www.w3.org/2000/svg" width="275" height="183">
<path d="M0 0 C90.75 0 181.5 0 275 0 C275 60.39 275 120.78 275 183 C184.25 183 93.5 183 0 183 C0 122.61 0 62.22 0 0 Z " fill="#FCFC03" transform="translate(0,0)"/>
<path d="M0 0 C1.33479044 0.71720083 2.64873803 1.4757052 3.9296875 2.28515625 C6.27351137 3.3035426 7.35709765 2.93859684 9.71875 2.0625 C10.585 1.546875 11.45125 1.03125 12.34375 0.5 C17.53726604 -1.71205313 22.64850417 -1.99370598 28.03515625 -0.140625 C31.49498275 1.51601384 34.08688724 3.25357002 36.71875 6.0625 C40.26393884 4.66490095 40.26393884 4.66490095 43.71875 3.0625 C50.82842628 2.33238173 56.88959287 2.67154102 62.71875 7.0625 C65.49646061 9.78562678 67.97306793 12.57113585 69.71875 16.0625 C71.43745721 16.78964536 73.15657476 17.51585634 74.87890625 18.234375 C80.51092232 20.76938011 82.67905699 24.29127311 84.9375 29.80078125 C85.88044777 32.53061504 86.42423697 35.19099793 86.71875 38.0625 C87.37875 36.7425 88.03875 35.4225 88.71875 34.0625 C89.70875 34.0625 90.69875 34.0625 91.71875 34.0625 C92.28006481 40.51762034 90.35338787 45.21689723 87.71875 51.0625 C88.646875 51.330625 89.575 51.59875 90.53125 51.875 C93.47656025 52.97227245 94.86892877 53.59607169 96.71875 56.0625 C96.71875 56.7225 96.71875 57.3825 96.71875 58.0625 C94.73875 58.0625 92.75875 58.0625 90.71875 58.0625 C90.47125 57.423125 90.22375 56.78375 89.96875 56.125 C88.89187232 53.96162269 88.89187232 53.96162269 86.90625 53.0625 C83.6041921 53.0625 82.21198592 54.97513969 79.71875 57.0625 C74.37802704 59.88401402 70.60680121 60.37239743 64.71875 60.0625 C64.71875 59.4025 64.71875 58.7425 64.71875 58.0625 C65.37875 58.0625 66.03875 58.0625 66.71875 58.0625 C66.71875 57.0725 66.71875 56.0825 66.71875 55.0625 C66.05875 55.64 65.39875 56.2175 64.71875 56.8125 C57.6209792 62.1358281 50.67957065 64.82963765 41.71875 64.0625 C40.35713099 63.67087244 39.00243985 63.25425939 37.65625 62.8125 C35.25931051 62.12967834 34.15415476 61.89844729 31.80078125 62.78515625 C30.06841973 63.8157082 28.39096386 64.93697144 26.71875 66.0625 C22.44224963 67.40482205 18.14044383 67.87552112 13.71875 67.0625 C11.484375 65.6171875 11.484375 65.6171875 9.28125 63.875 C6.08603566 61.43925586 6.08603566 61.43925586 2.2109375 61.33203125 C0.50372989 61.90371086 -1.18990614 62.51757948 -2.8671875 63.171875 C-7.85530804 65.01215248 -12.01253642 64.50654975 -17.03125 62.75 C-20.28125 61.0625 -20.28125 61.0625 -22.1875 59.48046875 C-24.67322528 57.79703913 -26.06212322 57.73477909 -29.03125 57.6875 C-35.87747179 57.17327716 -40.60071713 54.17194604 -45.15625 49.125 C-48.90427217 43.72343863 -50.05741671 38.6026588 -49.28125 32.0625 C-47.43757309 25.49440102 -43.63703272 21.97105938 -38.28125 18.0625 C-34.2663259 15.81022551 -30.84266107 15.88362113 -26.28125 16.0625 C-25.971875 14.5465625 -25.971875 14.5465625 -25.65625 13 C-24.01032829 7.28563799 -20.31089164 3.49247479 -15.53125 0.125 C-10.35846778 -1.56610188 -5.13356449 -2.10968404 0 0 Z " fill="#F8F806" transform="translate(117.28125,62.9375)"/>
<path d="M0 0 C1.33479044 0.71720083 2.64873803 1.4757052 3.9296875 2.28515625 C6.27351137 3.3035426 7.35709765 2.93859684 9.71875 2.0625 C10.585 1.546875 11.45125 1.03125 12.34375 0.5 C17.53726604 -1.71205313 22.64850417 -1.99370598 28.03515625 -0.140625 C31.49498275 1.51601384 34.08688724 3.25357002 36.71875 6.0625 C40.26393884 4.66490095 40.26393884 4.66490095 43.71875 3.0625 C50.82842628 2.33238173 56.88959287 2.67154102 62.71875 7.0625 C65.49646061 9.78562678 67.97306793 12.57113585 69.71875 16.0625 C71.43745721 16.78964536 73.15657476 17.51585634 74.87890625 18.234375 C80.51092232 20.76938011 82.67905699 24.29127311 84.9375 29.80078125 C85.88044777 32.53061504 86.42423697 35.19099793 86.71875 38.0625 C87.37875 36.7425 88.03875 35.4225 88.71875 34.0625 C89.70875 34.0625 90.69875 34.0625 91.71875 34.0625 C92.28006481 40.51762034 90.35338787 45.21689723 87.71875 51.0625 C88.646875 51.330625 89.575 51.59875 90.53125 51.875 C93.47656025 52.97227245 94.86892877 53.59607169 96.71875 56.0625 C96.71875 56.7225 96.71875 57.3825 96.71875 58.0625 C94.73875 58.0625 92.75875 58.0625 90.71875 58.0625 C90.47125 57.423125 90.22375 56.78375 89.96875 56.125 C88.89187232 53.96162269 88.89187232 53.96162269 86.90625 53.0625 C83.6041921 53.0625 82.21198592 54.97513969 79.71875 57.0625 C74.37802704 59.88401402 70.60680121 60.37239743 64.71875 60.0625 C64.71875 59.4025 64.71875 58.7425 64.71875 58.0625 C65.37875 58.0625 66.03875 58.0625 66.71875 58.0625 C66.71875 57.0725 66.71875 56.0825 66.71875 55.0625 C66.05875 55.64 65.39875 56.2175 64.71875 56.8125 C57.6209792 62.1358281 50.67957065 64.82963765 41.71875 64.0625 C40.35713099 63.67087244 39.00243985 63.25425939 37.65625 62.8125 C35.25931051 62.12967834 34.15415476 61.89844729 31.80078125 62.78515625 C30.06841973 63.8157082 28.39096386 64.93697144 26.71875 66.0625 C22.44224963 67.40482205 18.14044383 67.87552112 13.71875 67.0625 C11.484375 65.6171875 11.484375 65.6171875 9.28125 63.875 C6.08603566 61.43925586 6.08603566 61.43925586 2.2109375 61.33203125 C0.50372989 61.90371086 -1.18990614 62.51757948 -2.8671875 63.171875 C-7.85530804 65.01215248 -12.01253642 64.50654975 -17.03125 62.75 C-20.28125 61.0625 -20.28125 61.0625 -22.1875 59.48046875 C-24.67322528 57.79703913 -26.06212322 57.73477909 -29.03125 57.6875 C-35.87747179 57.17327716 -40.60071713 54.17194604 -45.15625 49.125 C-48.90427217 43.72343863 -50.05741671 38.6026588 -49.28125 32.0625 C-47.43757309 25.49440102 -43.63703272 21.97105938 -38.28125 18.0625 C-34.2663259 15.81022551 -30.84266107 15.88362113 -26.28125 16.0625 C-25.971875 14.5465625 -25.971875 14.5465625 -25.65625 13 C-24.01032829 7.28563799 -20.31089164 3.49247479 -15.53125 0.125 C-10.35846778 -1.56610188 -5.13356449 -2.10968404 0 0 Z M-20.71875 7.625 C-23.86802714 11.61522853 -24.39297957 13.92293989 -24.28125 19.0625 C-25.36792969 18.99289063 -25.36792969 18.99289063 -26.4765625 18.921875 C-32.65629766 18.69116489 -36.49065241 18.7281498 -41.28125 23.0625 C-45.96734687 27.95289537 -47.70559129 31.9220641 -47.62890625 38.6484375 C-46.84591538 44.08538533 -43.55378136 47.90834365 -39.59375 51.5 C-35.82002629 54.04981332 -33.71101182 54.17345491 -29.15625 54.125 C-28.06054688 54.11597656 -26.96484375 54.10695312 -25.8359375 54.09765625 C-24.99289063 54.08605469 -24.14984375 54.07445312 -23.28125 54.0625 C-23.013125 54.67609375 -22.745 55.2896875 -22.46875 55.921875 C-20.59470409 59.30008934 -17.80542438 60.7927607 -14.28125 62.0625 C-9.10675838 62.89174545 -4.8969714 62.77070191 -0.40625 59.9375 C2.71875 58.0625 2.71875 58.0625 4.78125 58.5625 C5.420625 59.0575 6.06 59.5525 6.71875 60.0625 C12.68951482 64.16740082 16.36947373 65.79742763 23.71875 65.0625 C25.89013551 63.93824993 27.83598014 62.67523365 29.82421875 61.25390625 C31.83527043 59.98922427 33.36629117 59.37292756 35.71875 59.0625 C36.42 59.536875 37.12125 60.01125 37.84375 60.5 C42.13655534 62.83304638 45.94195202 62.95284992 50.71875 62.0625 C55.35331954 59.82948013 58.85727597 57.35471104 61.71875 53.0625 C63.890625 52.69140625 63.890625 52.69140625 66.46875 52.625 C72.63047857 52.17219286 75.94006365 50.08154937 80.03125 45.4375 C83.66466531 40.32380438 83.4157992 35.18713455 82.71875 29.0625 C80.70023526 24.25491719 77.40855879 21.29015918 72.71875 19.0625 C71.873125 18.794375 71.0275 18.52625 70.15625 18.25 C66.78778598 16.60895343 65.71680648 14.18446325 63.71875 11.0625 C58.22477273 6.23851996 54.83894989 4.63021676 47.59375 4.7265625 C43.28509579 5.23001938 40.41080102 6.83333712 36.71875 9.0625 C36.03039062 8.44761719 36.03039062 8.44761719 35.328125 7.8203125 C34.71453125 7.28148438 34.1009375 6.74265625 33.46875 6.1875 C32.86546875 5.65382813 32.2621875 5.12015625 31.640625 4.5703125 C27.54099832 1.35393872 24.2513322 0.58346892 19.11328125 0.66015625 C15.01925705 1.34805918 11.96979909 3.58213557 8.71875 6.0625 C8.99589844 6.58199219 9.27304688 7.10148437 9.55859375 7.63671875 C11.52608267 11.42466005 13.18212389 14.76949113 13.71875 19.0625 C13.05875 19.0625 12.39875 19.0625 11.71875 19.0625 C11.698125 18.0725 11.6775 17.0825 11.65625 16.0625 C10.91044148 10.82053157 7.50296415 7.52681151 3.71875 4.0625 C-4.48438017 -1.40625345 -14.37085761 0.3355542 -20.71875 7.625 Z " fill="#13130D" transform="translate(117.28125,62.9375)"/>
<path d="M0 0 C1.48831242 0.00667405 2.97660807 0.01863442 4.46484375 0.03515625 C5.22345703 0.03966797 5.98207031 0.04417969 6.76367188 0.04882812 C8.64326246 0.06064945 10.52281274 0.07858547 12.40234375 0.09765625 C13.07567368 3.17957329 13.73983234 6.26339705 14.40234375 9.34765625 C14.593125 10.22035156 14.78390625 11.09304687 14.98046875 11.9921875 C15.25117188 13.25869141 15.25117188 13.25869141 15.52734375 14.55078125 C15.69492188 15.32583008 15.8625 16.10087891 16.03515625 16.89941406 C16.40234375 19.09765625 16.40234375 19.09765625 16.40234375 23.09765625 C14.42234375 23.09765625 12.44234375 23.09765625 10.40234375 23.09765625 C10.40234375 23.75765625 10.40234375 24.41765625 10.40234375 25.09765625 C11.14484375 25.05640625 11.88734375 25.01515625 12.65234375 24.97265625 C15.48993327 25.10163759 16.99008313 25.66816847 19.40234375 27.09765625 C19.40234375 28.74765625 19.40234375 30.39765625 19.40234375 32.09765625 C12.47234375 32.09765625 5.54234375 32.09765625 -1.59765625 32.09765625 C-1.92765625 30.77765625 -2.25765625 29.45765625 -2.59765625 28.09765625 C-2.92765625 28.42765625 -3.25765625 28.75765625 -3.59765625 29.09765625 C-3.59765625 30.41765625 -3.59765625 31.73765625 -3.59765625 33.09765625 C-6.60797369 34.0318927 -7.46415893 34.14215536 -10.59765625 33.09765625 C-10.59765625 30.78765625 -10.59765625 28.47765625 -10.59765625 26.09765625 C-9.29828125 26.11828125 -7.99890625 26.13890625 -6.66015625 26.16015625 C-5.30599992 26.18165079 -3.95009542 26.16913824 -2.59765625 26.09765625 C-2.26765625 25.76765625 -1.93765625 25.43765625 -1.59765625 25.09765625 C-2.58765625 24.76765625 -3.57765625 24.43765625 -4.59765625 24.09765625 C-4.62652861 20.28517199 -4.64441117 16.47271555 -4.66015625 12.66015625 C-4.66853516 11.57154297 -4.67691406 10.48292969 -4.68554688 9.36132812 C-4.68876953 8.32685547 -4.69199219 7.29238281 -4.6953125 6.2265625 C-4.70054932 5.2682251 -4.70578613 4.3098877 -4.71118164 3.32250977 C-4.5205315 -0.41382292 -3.89853764 0.1058235 0 0 Z " fill="#E2E317" transform="translate(177.59765625,140.90234375)"/>
<path d="M0 0 C1.32 0 2.64 0 4 0 C5.65353259 2.91236539 7.29644905 5.83058604 8.9375 8.75 C9.40607422 9.575 9.87464844 10.4 10.35742188 11.25 C10.80537109 12.04921875 11.25332031 12.8484375 11.71484375 13.671875 C12.12855225 14.4050293 12.54226074 15.13818359 12.96850586 15.89355469 C13.99466304 17.98910123 14.71918274 19.68141207 15 22 C13.66666667 24 12.33333333 26 11 28 C11.33 29.32 11.66 30.64 12 32 C5.4 32 -1.2 32 -8 32 C-8 29.69 -8 27.38 -8 25 C-8.98020375 23.9805881 -9.97803008 22.97753644 -11 22 C-10.72157225 16.81925511 -7.74323207 12.54942898 -5.1875 8.1875 C-4.74857422 7.39923828 -4.30964844 6.61097656 -3.85742188 5.79882812 C-3.42365234 5.05439453 -2.98988281 4.30996094 -2.54296875 3.54296875 C-2.15133545 2.86258545 -1.75970215 2.18220215 -1.35620117 1.48120117 C-0.90865479 0.99240479 -0.4611084 0.5036084 0 0 Z " fill="#D5D718" transform="translate(187,12)"/>
<path d="M0 0 C6.27 0 12.54 0 19 0 C19.02682987 3.64588169 19.04675569 7.29156846 19.0625 10.9375 C19.07087891 11.97841797 19.07925781 13.01933594 19.08789062 14.09179688 C19.09272461 15.57583008 19.09272461 15.57583008 19.09765625 17.08984375 C19.10551147 18.46450806 19.10551147 18.46450806 19.11352539 19.86694336 C19 22 19 22 18 23 C16.65732587 23.08631874 15.31025678 23.10706473 13.96484375 23.09765625 C12.87224243 23.09390991 12.87224243 23.09390991 11.75756836 23.09008789 C10.8269458 23.08098389 9.89632324 23.07187988 8.9375 23.0625 C4.5134375 23.0315625 4.5134375 23.0315625 0 23 C0 15.41 0 7.82 0 0 Z " fill="#BEBF17" transform="translate(34,104)"/>
<path d="M0 0 C2.84421784 2.0746589 3.47160246 3.48231712 4.46875 6.80078125 C4.84 7.46078125 5.21125 8.12078125 5.59375 8.80078125 C6.66251273 11.24366748 6.6153193 13.16253386 6.46875 15.80078125 C5.80875 15.80078125 5.14875 15.80078125 4.46875 15.80078125 C4.26572266 14.93066406 4.26572266 14.93066406 4.05859375 14.04296875 C2.3345292 7.7867824 -0.10169457 4.36210255 -5.53125 0.80078125 C-9.90696957 -1.67061162 -13.63942834 -1.85345217 -18.5859375 -0.734375 C-23.73562362 0.90769473 -26.5509155 3.1549657 -29.53125 7.80078125 C-30.45210775 10.47657209 -31.00131445 13.00657562 -31.53125 15.80078125 C-32.25570312 15.8265625 -32.98015625 15.85234375 -33.7265625 15.87890625 C-41.30804359 16.32368647 -45.61440259 17.56859899 -50.84375 23.36328125 C-53.9843745 27.89973886 -54.29319 32.44988441 -53.53125 37.80078125 C-51.30185594 43.27817183 -47.95661271 47.33470729 -42.53125 49.80078125 C-40.51478721 49.99804391 -38.49240864 50.1390823 -36.46875 50.23828125 C-30.88368495 50.51442785 -30.88368495 50.51442785 -27.53125 53.23828125 C-26.87125 54.08390625 -26.21125 54.92953125 -25.53125 55.80078125 C-21.12138131 58.54868658 -16.57317623 58.48443226 -11.53125 57.80078125 C-9.46138167 56.88504908 -9.46138167 56.88504908 -7.65625 55.67578125 C-4.53125 53.80078125 -4.53125 53.80078125 -2.46875 54.30078125 C-1.829375 54.79578125 -1.19 55.29078125 -0.53125 55.80078125 C5.43951482 59.90568207 9.11947373 61.53570888 16.46875 60.80078125 C18.64013551 59.67653118 20.58598014 58.4135149 22.57421875 56.9921875 C24.54649887 55.75188763 26.19442401 55.23950932 28.46875 54.80078125 C27.32830594 57.7333517 26.09575701 59.43734941 23.359375 61.0234375 C17.91733647 63.38109084 12.38193259 65.27385324 6.46875 63.80078125 C4.2578125 62.34375 4.2578125 62.34375 2.03125 60.61328125 C-1.16396434 58.17753711 -1.16396434 58.17753711 -5.0390625 58.0703125 C-6.74627011 58.64199211 -8.43990614 59.25586073 -10.1171875 59.91015625 C-15.10530804 61.75043373 -19.26253642 61.244831 -24.28125 59.48828125 C-27.53125 57.80078125 -27.53125 57.80078125 -29.4375 56.21875 C-31.92322528 54.53532038 -33.31212322 54.47306034 -36.28125 54.42578125 C-43.12747179 53.91155841 -47.85071713 50.91022729 -52.40625 45.86328125 C-56.15427217 40.46171988 -57.30741671 35.34094005 -56.53125 28.80078125 C-54.68757309 22.23268227 -50.88703272 18.70934063 -45.53125 14.80078125 C-41.5163259 12.54850676 -38.09266107 12.62190238 -33.53125 12.80078125 C-33.221875 11.28484375 -33.221875 11.28484375 -32.90625 9.73828125 C-31.26032829 4.02391924 -27.56089164 0.23075604 -22.78125 -3.13671875 C-14.1323901 -5.96423064 -7.97357377 -3.97651166 0 0 Z " fill="#0E0E0C" transform="translate(124.53125,66.19921875)"/>
<path d="M0 0 C0.99 0 1.98 0 3 0 C3 0.66 3 1.32 3 2 C5.31 2 7.62 2 10 2 C10.1953125 4.01822917 10.390625 6.03645833 10.5859375 8.0546875 C10.86374749 10.22668245 10.86374749 10.22668245 13 12 C13.25 14.5 13.25 14.5 13 17 C12.34 17.66 11.68 18.32 11 19 C10.67 20.98 10.34 22.96 10 25 C4.39 25 -1.22 25 -7 25 C-7 17.74 -7 10.48 -7 3 C-3.535 2.505 -3.535 2.505 0 2 C0 1.34 0 0.68 0 0 Z " fill="#F1F219" transform="translate(229,51)"/>
<path d="M0 0 C2.8100346 1.79363911 4.50940468 3.01880935 6 6 C6.35555556 13.46666667 6.35555556 13.46666667 4 17 C3.67 18.65 3.34 20.3 3 22 C-1.95 23.485 -1.95 23.485 -7 25 C-7.33 23.68 -7.66 22.36 -8 21 C-9.65 21 -11.3 21 -13 21 C-13 19.35 -13 17.7 -13 16 C-13.66 16 -14.32 16 -15 16 C-14.97262012 9.96273566 -14.09730454 5.68681719 -9.8125 1.2578125 C-6.38106985 -1.1234817 -4.07692506 -0.71184406 0 0 Z " fill="#070803" transform="translate(123,10)"/>
<path d="M0 0 C0.99 0 1.98 0 3 0 C2.835 1.11375 2.67 2.2275 2.5 3.375 C1.95196039 7.57913949 1.99642406 11.66759782 2.16015625 15.8984375 C2 18 2 18 0 20 C-2.56292317 20.17163731 -5.00345857 20.23264558 -7.5625 20.1875 C-8.26052734 20.18685547 -8.95855469 20.18621094 -9.67773438 20.18554688 C-14.85968842 20.14031158 -14.85968842 20.14031158 -16 19 C-16.12658222 16.34177343 -16.18520214 13.72112576 -16.1875 11.0625 C-16.19974609 10.32064453 -16.21199219 9.57878906 -16.22460938 8.81445312 C-16.22988478 6.87486371 -16.12188902 4.9357629 -16 3 C-14 1 -14 1 -11.3984375 0.8046875 C-10.40070313 0.82789062 -9.40296875 0.85109375 -8.375 0.875 C-6.87066406 0.90207031 -6.87066406 0.90207031 -5.3359375 0.9296875 C-4.56507813 0.95289062 -3.79421875 0.97609375 -3 1 C-3 1.66 -3 2.32 -3 3 C-2.34 3 -1.68 3 -1 3 C-0.67 2.01 -0.34 1.02 0 0 Z " fill="#DFE012" transform="translate(237,108)"/>
<path d="M0 0 C2.5 1.5625 2.5 1.5625 4 4 C4.33094958 7.77282526 4.19754817 10.40735548 3 14 C3.556875 14.061875 4.11375 14.12375 4.6875 14.1875 C8.05802012 15.3717368 9.7687468 17.25874607 12 20 C11.8125 22.3125 11.8125 22.3125 11 24 C7.18063472 22.44396229 4.73955562 20.04395069 2 17 C2 16.34 2 15.68 2 15 C1.32453125 15.11859375 0.6490625 15.2371875 -0.046875 15.359375 C-7.26506264 16.4024657 -7.26506264 16.4024657 -10.625 14.5625 C-12.55467526 10.96628701 -12.78541018 7.99250174 -12 4 C-9.16275081 -0.72874865 -5.07216919 -1.00819756 0 0 Z " fill="#13140A" transform="translate(96,141)"/>
<path d="M0 0 C0.33 0 0.66 0 1 0 C1.33 1.98 1.66 3.96 2 6 C2.66 4.68 3.32 3.36 4 2 C4.99 2 5.98 2 7 2 C7.56131481 8.45512034 5.63463787 13.15439723 3 19 C3.928125 19.268125 4.85625 19.53625 5.8125 19.8125 C8.75781025 20.90977245 10.15017877 21.53357169 12 24 C12 24.66 12 25.32 12 26 C10.02 26 8.04 26 6 26 C5.7525 25.360625 5.505 24.72125 5.25 24.0625 C4.17312232 21.89912269 4.17312232 21.89912269 2.1875 21 C-1.1145579 21 -2.50676408 22.91263969 -5 25 C-10.34072296 27.82151402 -14.11194879 28.30989743 -20 28 C-20 27.34 -20 26.68 -20 26 C-19.34 26 -18.68 26 -18 26 C-18 25.01 -18 24.02 -18 23 C-19.65 24.32 -21.3 25.64 -23 27 C-23.66 26.67 -24.32 26.34 -25 26 C-23.859375 24.0546875 -23.859375 24.0546875 -22 22 C-19.328125 21.3828125 -19.328125 21.3828125 -16.25 21.125 C-10.27466725 20.30755133 -6.80798676 18.70121822 -3 14 C-0.48057364 9.76278293 -0.4001896 4.83386917 0 0 Z " fill="#E7E717" transform="translate(202,95)"/>
<path d="M0 0 C1.134375 0.020625 2.26875 0.04125 3.4375 0.0625 C3.7675 1.3825 4.0975 2.7025 4.4375 4.0625 C4.7675 3.4025 5.0975 2.7425 5.4375 2.0625 C10.21993229 0.89431096 15.00523462 0.93145894 19.8984375 0.96484375 C21.0842894 0.96696617 21.0842894 0.96696617 22.2940979 0.96913147 C24.80027166 0.97469496 27.30635358 0.98724056 29.8125 1 C31.51952995 1.00501972 33.22656132 1.0095818 34.93359375 1.01367188 C39.10159748 1.02465241 43.26953321 1.04189161 47.4375 1.0625 C46.7775 3.0425 46.1175 5.0225 45.4375 7.0625 C44.9425 5.0825 44.9425 5.0825 44.4375 3.0625 C43.4475 3.0625 42.4575 3.0625 41.4375 3.0625 C41.1075 4.0525 40.7775 5.0425 40.4375 6.0625 C41.0975 6.0625 41.7575 6.0625 42.4375 6.0625 C42.4375 6.7225 42.4375 7.3825 42.4375 8.0625 C40.18756641 8.08957139 37.93753905 8.10892829 35.6875 8.125 C34.43453125 8.13660156 33.1815625 8.14820313 31.890625 8.16015625 C29.11769924 8.0817364 27.05913983 7.81238347 24.4375 7.0625 C23.4475 7.0625 22.4575 7.0625 21.4375 7.0625 C21.4375 6.4025 21.4375 5.7425 21.4375 5.0625 C20.4475 5.0625 19.4575 5.0625 18.4375 5.0625 C18.1075 5.7225 17.7775 6.3825 17.4375 7.0625 C10.8375 7.0625 4.2375 7.0625 -2.5625 7.0625 C-2.5625 5.4125 -2.5625 3.7625 -2.5625 2.0625 C-3.2225 1.7325 -3.8825 1.4025 -4.5625 1.0625 C-3.5625 0.0625 -3.5625 0.0625 0 0 Z " fill="#6E6F2D" transform="translate(75.5625,165.9375)"/>
<path d="M0 0 C2.29449995 0.09095844 4.58653332 0.24796442 6.875 0.4375 C11.93198138 0.85627916 11.93198138 0.85627916 17 1 C17 2.98 17 4.96 17 7 C16.01 7.495 16.01 7.495 15 8 C14.84850702 11.62885324 14.84850702 11.62885324 16 15 C16.0396713 16.66619446 16.04384447 18.33391013 16 20 C19.01853795 20 21.77081079 19.85049285 24.75 19.5 C25.54921875 19.4071875 26.3484375 19.314375 27.171875 19.21875 C27.77515625 19.1465625 28.3784375 19.074375 29 19 C29 19.66 29 20.32 29 21 C28.39671875 21.12117188 27.7934375 21.24234375 27.171875 21.3671875 C26.37265625 21.53476562 25.5734375 21.70234375 24.75 21.875 C23.56664062 22.11863281 23.56664062 22.11863281 22.359375 22.3671875 C19.97625767 22.91986349 19.97625767 22.91986349 17.85546875 24.0859375 C15.22768776 25.3804654 13.76897931 24.81043297 11 24 C10.26265625 23.65710938 9.5253125 23.31421875 8.765625 22.9609375 C5.43052896 21.80213294 2.70910571 21.80385645 -0.8125 21.875 C-1.97394531 21.89304687 -3.13539062 21.91109375 -4.33203125 21.9296875 C-5.65267578 21.96449219 -5.65267578 21.96449219 -7 22 C-7 21.34 -7 20.68 -7 20 C0.35082636 17.54972455 6.98770081 19.21497337 14 22 C12.92598892 19.08482708 12.22189824 17.22189824 10 15 C10.375 12.375 10.375 12.375 11 10 C11.66 10 12.32 10 13 10 C13 9.34 13 8.68 13 8 C11.02 8 9.04 8 7 8 C6.34 6.02 5.68 4.04 5 2 C5 3.65 5 5.3 5 7 C1.37 7 -2.26 7 -6 7 C-6.33 5.35 -6.66 3.7 -7 2 C-6.67 1.67 -6.34 1.34 -6 1 C-4.33333333 1 -2.66666667 1 -1 1 C-0.67 0.67 -0.34 0.34 0 0 Z " fill="#70702C" transform="translate(110,37)"/>
<path d="M0 0 C0.80566406 0.01160156 1.61132812 0.02320313 2.44140625 0.03515625 C3.24449219 0.04417969 4.04757813 0.05320313 4.875 0.0625 C5.57753906 0.07410156 6.28007812 0.08570313 7.00390625 0.09765625 C7.66390625 0.09765625 8.32390625 0.09765625 9.00390625 0.09765625 C14.67057292 0.09765625 20.33723958 0.09765625 26.00390625 0.09765625 C26.33390625 1.08765625 26.66390625 2.07765625 27.00390625 3.09765625 C27.33390625 2.10765625 27.66390625 1.11765625 28.00390625 0.09765625 C31.96390625 0.09765625 35.92390625 0.09765625 40.00390625 0.09765625 C39.34390625 0.42765625 38.68390625 0.75765625 38.00390625 1.09765625 C38.66390625 2.74765625 39.32390625 4.39765625 40.00390625 6.09765625 C25.67057292 6.09765625 11.33723958 6.09765625 -2.99609375 6.09765625 C-3.03881475 4.4315372 -3.03673207 2.7638274 -2.99609375 1.09765625 C-1.99609375 0.09765625 -1.99609375 0.09765625 0 0 Z " fill="#83842F" transform="translate(211.99609375,130.90234375)"/>
<path d="M0 0 C2.97 0 5.94 0 9 0 C9 0.99 9 1.98 9 3 C7.02 3 5.04 3 3 3 C3 3.99 3 4.98 3 6 C4.32 6 5.64 6 7 6 C7 6.66 7 7.32 7 8 C5.68 8 4.36 8 3 8 C3 9.32 3 10.64 3 12 C4.98 12 6.96 12 9 12 C9 12.66 9 13.32 9 14 C6.03 14 3.06 14 0 14 C0 13.34 0 12.68 0 12 C-0.99 12.66 -1.98 13.32 -3 14 C-5.5625 14.25 -5.5625 14.25 -8 14 C-10 12 -10 12 -10.23046875 9.65234375 C-10.21628906 8.75644531 -10.20210937 7.86054687 -10.1875 6.9375 C-10.18105469 6.03902344 -10.17460937 5.14054687 -10.16796875 4.21484375 C-10 2 -10 2 -9 1 C-5.5 0.875 -5.5 0.875 -2 1 C-1.67 1.33 -1.34 1.66 -1 2 C-0.67 1.34 -0.34 0.68 0 0 Z " fill="#CBCB20" transform="translate(178,91)"/>
<path d="M0 0 C2.64 0 5.28 0 8 0 C8 7.59 8 15.18 8 23 C5.36 23 2.72 23 0 23 C0 15.41 0 7.82 0 0 Z " fill="#15170B" transform="translate(173,142)"/>
<path d="M0 0 C0.67332993 3.08191704 1.33748859 6.1657408 2 9.25 C2.19078125 10.12269531 2.3815625 10.99539062 2.578125 11.89453125 C2.75859375 12.73886719 2.9390625 13.58320313 3.125 14.453125 C3.29257813 15.22817383 3.46015625 16.00322266 3.6328125 16.80175781 C4 19 4 19 4 23 C1.69 23.33 -0.62 23.66 -3 24 C-5.77069675 16.08372357 -7.3483523 9.36045512 -7 1 C-4 0 -4 0 0 0 Z " fill="#090A07" transform="translate(190,141)"/>
<path d="M0 0 C0.66 0 1.32 0 2 0 C3.50256989 2.64440376 5.0021612 5.29041852 6.5 7.9375 C6.92925781 8.69224609 7.35851562 9.44699219 7.80078125 10.22460938 C8.40986328 11.30258789 8.40986328 11.30258789 9.03125 12.40234375 C9.40830078 13.06741943 9.78535156 13.73249512 10.17382812 14.41772461 C11 16 11 16 11 17 C7.37 17 3.74 17 0 17 C0.66 16.67 1.32 16.34 2 16 C2 14.68 2 13.36 2 12 C-0.51083114 13.25541557 -0.87125446 14.50063488 -2 17 C-4.31 17 -6.62 17 -9 17 C-7.5143761 12.99624358 -5.63136615 9.38578153 -3.5 5.6875 C-2.58734375 4.08455078 -2.58734375 4.08455078 -1.65625 2.44921875 C-1.1096875 1.64097656 -0.563125 0.83273437 0 0 Z " fill="#F2F30E" transform="translate(188,15)"/>
<path d="M0 0 C1.32 0 2.64 0 4 0 C5.65353259 2.91236539 7.29644905 5.83058604 8.9375 8.75 C9.40607422 9.575 9.87464844 10.4 10.35742188 11.25 C10.80537109 12.04921875 11.25332031 12.8484375 11.71484375 13.671875 C12.12855225 14.4050293 12.54226074 15.13818359 12.96850586 15.89355469 C14 18 14 18 15 22 C6.42 22 -2.16 22 -11 22 C-9.90359749 16.51798746 -7.97101858 12.93819766 -5.1875 8.1875 C-4.74857422 7.39923828 -4.30964844 6.61097656 -3.85742188 5.79882812 C-3.42365234 5.05439453 -2.98988281 4.30996094 -2.54296875 3.54296875 C-2.15133545 2.86258545 -1.75970215 2.18220215 -1.35620117 1.48120117 C-0.90865479 0.99240479 -0.4611084 0.5036084 0 0 Z M1 3 C-0.63863397 5.43133054 -2.14921334 7.84771535 -3.625 10.375 C-4.25535156 11.42300781 -4.25535156 11.42300781 -4.8984375 12.4921875 C-7.19195826 16.00456551 -7.19195826 16.00456551 -8 20 C-5.69 20 -3.38 20 -1 20 C-0.71125 19.360625 -0.4225 18.72125 -0.125 18.0625 C1 16 1 16 3 15 C3 16.32 3 17.64 3 19 C2.34 19.33 1.68 19.66 1 20 C4.63 20 8.26 20 12 20 C10.8774654 17.72791794 9.75208479 15.45732355 8.625 13.1875 C8.30789062 12.54490234 7.99078125 11.90230469 7.6640625 11.24023438 C6.23541389 8.36805539 4.78214527 5.6732179 3 3 C2.34 3 1.68 3 1 3 Z " fill="#070707" transform="translate(187,12)"/>
<path d="M0 0 C6.27 0 12.54 0 19 0 C19.02682987 3.64588169 19.04675569 7.29156846 19.0625 10.9375 C19.07087891 11.97841797 19.07925781 13.01933594 19.08789062 14.09179688 C19.09272461 15.57583008 19.09272461 15.57583008 19.09765625 17.08984375 C19.10551147 18.46450806 19.10551147 18.46450806 19.11352539 19.86694336 C19 22 19 22 18 23 C16.65732587 23.08631874 15.31025678 23.10706473 13.96484375 23.09765625 C12.87224243 23.09390991 12.87224243 23.09390991 11.75756836 23.09008789 C10.8269458 23.08098389 9.89632324 23.07187988 8.9375 23.0625 C4.5134375 23.0315625 4.5134375 23.0315625 0 23 C0 15.41 0 7.82 0 0 Z M2 2 C2 8.27 2 14.54 2 21 C6.95 21 11.9 21 17 21 C17 14.73 17 8.46 17 2 C12.05 2 7.1 2 2 2 Z " fill="#070807" transform="translate(34,104)"/>
<path d="M0 0 C0.99 0 1.98 0 3 0 C3 0.66 3 1.32 3 2 C5.31 2 7.62 2 10 2 C10.1953125 4.01822917 10.390625 6.03645833 10.5859375 8.0546875 C10.86374749 10.22668245 10.86374749 10.22668245 13 12 C13.25 14.5 13.25 14.5 13 17 C12.34 17.66 11.68 18.32 11 19 C10.67 20.98 10.34 22.96 10 25 C4.39 25 -1.22 25 -7 25 C-7 17.74 -7 10.48 -7 3 C-3.535 2.505 -3.535 2.505 0 2 C0 1.34 0 0.68 0 0 Z M-5 4 C-5 10.6 -5 17.2 -5 24 C-0.38 24 4.24 24 9 24 C9 22.02 9 20.04 9 18 C9.66 18 10.32 18 11 18 C11.33 16.35 11.66 14.7 12 13 C11.01 13.33 10.02 13.66 9 14 C9 10.66666667 9 7.33333333 9 4 C4.38 4 -0.24 4 -5 4 Z " fill="#1D200C" transform="translate(229,51)"/>
<path d="M0 0 C0.99 0 1.98 0 3 0 C3.56131481 6.45512034 1.63463787 11.15439723 -1 17 C-0.071875 17.268125 0.85625 17.53625 1.8125 17.8125 C4.75781025 18.90977245 6.15017877 19.53357169 8 22 C8 22.66 8 23.32 8 24 C6.02 24 4.04 24 2 24 C1.7525 23.360625 1.505 22.72125 1.25 22.0625 C0.17312232 19.89912269 0.17312232 19.89912269 -1.8125 19 C-5.1145579 19 -6.50676408 20.91263969 -9 23 C-14.34072296 25.82151402 -18.11194879 26.30989743 -24 26 C-24 25.34 -24 24.68 -24 24 C-23.29875 23.92523438 -22.5975 23.85046875 -21.875 23.7734375 C-14.90447717 22.80741396 -9.89048175 21.21343809 -5 16 C-1.43114822 10.97870855 -0.43297925 6.06170945 0 0 Z " fill="#0A0A0A" transform="translate(206,97)"/>
<path d="M0 0 C1.32 2.97 2.64 5.94 4 9 C0.535 10.485 0.535 10.485 -3 12 C-3.33 11.67 -3.66 11.34 -4 11 C-10.17296201 11.39401885 -15.36077898 13.56049795 -21 16 C-20.83984375 14.171875 -20.83984375 14.171875 -20 12 C-17.56640625 10.515625 -17.56640625 10.515625 -14.5625 9.25 C-13.57378906 8.82203125 -12.58507812 8.3940625 -11.56640625 7.953125 C-9 7 -9 7 -7 7 C-6.9175 6.21625 -6.835 5.4325 -6.75 4.625 C-6 2 -6 2 -4.0625 0.6875 C-2 0 -2 0 0 0 Z " fill="#101109" transform="translate(58,41)"/>
<path d="M0 0 C0.66 0 1.32 0 2 0 C2.09796875 0.556875 2.1959375 1.11375 2.296875 1.6875 C3.96534666 10.20245881 6.2930889 16.65678379 13.62890625 21.74609375 C17.84739199 23.97695689 22.35290329 25.02615988 27 26 C27 26.66 27 27.32 27 28 C19.91330806 27.97041047 15.54144048 26.62089329 9.91015625 22.27734375 C7.96734943 20.72206174 7.96734943 20.72206174 5 21 C4.360625 21.99 3.72125 22.98 3.0625 24 C2.381875 24.99 1.70125 25.98 1 27 C-0.32 27 -1.64 27 -3 27 C-2.8125 24.6875 -2.8125 24.6875 -2 22 C-0.34051852 20.98812105 1.32580562 19.9873454 3 19 C3.36980013 14.95377498 3.36980013 14.95377498 1 12 C0.5859375 9.08203125 0.5859375 9.08203125 0.375 5.8125 C0.30023438 4.72582031 0.22546875 3.63914062 0.1484375 2.51953125 C0.07496094 1.27236328 0.07496094 1.27236328 0 0 Z " fill="#0B0B0B" transform="translate(62,98)"/>
<path d="M0 0 C4.95 0 9.9 0 15 0 C14.67 2.64 14.34 5.28 14 8 C13.67 8 13.34 8 13 8 C13 6.35 13 4.7 13 3 C11.35333797 3.1135629 9.70763918 3.24117381 8.0625 3.375 C7.14597656 3.44460937 6.22945312 3.51421875 5.28515625 3.5859375 C4.53105469 3.72257812 3.77695312 3.85921875 3 4 C2.67 4.66 2.34 5.32 2 6 C5.3 6 8.6 6 12 6 C12 6.33 12 6.66 12 7 C8.7 7 5.4 7 2 7 C1.67 9.97 1.34 12.94 1 16 C5.29 16 9.58 16 14 16 C14.33 16.99 14.66 17.98 15 19 C10.05 19 5.1 19 0 19 C0 12.73 0 6.46 0 0 Z " fill="#F6F713" transform="translate(36,106)"/>
<path d="M0 0 C0 0.66 0 1.32 0 2 C-1.578076 2.84324672 -3.1627042 3.67423918 -4.75 4.5 C-5.63171875 4.9640625 -6.5134375 5.428125 -7.421875 5.90625 C-10 7 -10 7 -14 7 C-12.92598892 9.91517292 -12.22189824 11.77810176 -10 14 C-10.375 16.125 -10.375 16.125 -11 18 C-12.9375 17.375 -12.9375 17.375 -15 16 C-15.6875 13 -15.6875 13 -16 10 C-16.33 9.34 -16.66 8.68 -17 8 C-22.03896539 6.37757332 -26.46136076 5.3845443 -31.4375 7.375 C-32.7059375 8.179375 -32.7059375 8.179375 -34 9 C-35.32 9 -36.64 9 -38 9 C-38 8.34 -38 7.68 -38 7 C-32.52661163 4.16600113 -29.16298751 2.54988529 -23 4 C-14.06926534 4.7220594 -7.82316377 0 0 0 Z " fill="#0D0D0B" transform="translate(180,126)"/>
<path d="M0 0 C1.3303125 0.495 1.3303125 0.495 2.6875 1 C8.40920241 2.641472 16.72558549 3.64615374 22.14453125 0.921875 C24 0 24 0 25.984375 0.24609375 C28.15798944 1.05909295 30.18819209 1.99723258 32.25 3.0625 C32.95640625 3.42472656 33.6628125 3.78695312 34.390625 4.16015625 C34.92171875 4.43730469 35.4528125 4.71445313 36 5 C36 5.66 36 6.32 36 7 C32.26512223 6.5020163 30.18762365 6.12508244 27 4 C24.0175423 3.97584416 24.0175423 3.97584416 20.8125 4.375 C19.72582031 4.48585937 18.63914062 4.59671875 17.51953125 4.7109375 C16.27236328 4.85402344 16.27236328 4.85402344 15 5 C14.97421875 5.61488281 14.9484375 6.22976562 14.921875 6.86328125 C14.45283019 13.54716981 14.45283019 13.54716981 11.9375 16.0625 C10.9784375 16.5265625 10.9784375 16.5265625 10 17 C9.67 15.35 9.34 13.7 9 12 C9.66 12 10.32 12 11 12 C11.33 9.69 11.66 7.38 12 5 C11.38511719 4.95101562 10.77023438 4.90203125 10.13671875 4.8515625 C8.92435547 4.73941406 8.92435547 4.73941406 7.6875 4.625 C6.88699219 4.55539063 6.08648437 4.48578125 5.26171875 4.4140625 C3 4 3 4 0 2 C0 1.34 0 0.68 0 0 Z " fill="#1B1B10" transform="translate(95,128)"/>
<path d="M0 0 C4.18733828 -0.08210467 7.91330871 0.13964394 12 1 C13.6662553 1.0370279 15.33401319 1.04759962 17 1 C17 2.98 17 4.96 17 7 C9.74 7 2.48 7 -5 7 C-4.34 5.02 -3.68 3.04 -3 1 C-2.34 1.66 -1.68 2.32 -1 3 C-0.67 2.01 -0.34 1.02 0 0 Z " fill="#A5A52C" transform="translate(225,79)"/>
<path d="M0 0 C0.66 0 1.32 0 2 0 C0.5039904 3.80802445 -1.66063151 5.69424557 -5 8 C-8.76119579 9.55635688 -12.99789691 9.06670172 -17 9 C-17.226875 9.5775 -17.45375 10.155 -17.6875 10.75 C-19.9017158 14.54579851 -22.84171059 16.48520471 -26.8125 18.25 C-33.84061773 19.90367476 -38.72498108 19.32960188 -45 16 C-45.33 15.34 -45.66 14.68 -46 14 C-41.25 14.875 -41.25 14.875 -39 16 C-31.94604843 17.05342566 -27.54562713 15.75174819 -21.8125 11.60546875 C-19.77401736 9.93732356 -19.77401736 9.93732356 -18 7 C-15.828125 6.62890625 -15.828125 6.62890625 -13.25 6.5625 C-7.23026983 6.14494646 -4.26806702 4.26806702 0 0 Z " fill="#0A0A0A" transform="translate(197,108)"/>
<path d="M0 0 C3.0625 0.1875 3.0625 0.1875 5.0625 2.1875 C5.328125 4.28125 5.328125 4.28125 5.3125 6.6875 C5.31765625 7.4815625 5.3228125 8.275625 5.328125 9.09375 C5.0625 11.1875 5.0625 11.1875 3.0625 13.1875 C0 13.375 0 13.375 -2.9375 13.1875 C-3.9375 12.1875 -3.9375 12.1875 -4.0703125 9.71875 C-4.06773438 8.7184375 -4.06515625 7.718125 -4.0625 6.6875 C-4.06507812 5.6871875 -4.06765625 4.686875 -4.0703125 3.65625 C-3.87702193 0.06331935 -3.6437226 0.23257804 0 0 Z " fill="#1F1F10" transform="translate(101.9375,91.8125)"/>
<path d="M0 0 C3.875 1.75 3.875 1.75 5 4 C5.0396713 5.66619446 5.04384447 7.33391013 5 9 C8.01853795 9 10.77081079 8.85049285 13.75 8.5 C14.54921875 8.4071875 15.3484375 8.314375 16.171875 8.21875 C17.07679688 8.11046875 17.07679688 8.11046875 18 8 C18 8.66 18 9.32 18 10 C17.39671875 10.12117188 16.7934375 10.24234375 16.171875 10.3671875 C15.37265625 10.53476562 14.5734375 10.70234375 13.75 10.875 C12.56664062 11.11863281 12.56664062 11.11863281 11.359375 11.3671875 C8.97625767 11.91986349 8.97625767 11.91986349 6.85546875 13.0859375 C4.22768776 14.3804654 2.76897931 13.81043297 0 13 C-1.10601562 12.48566406 -1.10601562 12.48566406 -2.234375 11.9609375 C-5.56947104 10.80213294 -8.29089429 10.80385645 -11.8125 10.875 C-12.97394531 10.89304687 -14.13539062 10.91109375 -15.33203125 10.9296875 C-16.65267578 10.96449219 -16.65267578 10.96449219 -18 11 C-18 10.34 -18 9.68 -18 9 C-10.64917364 6.54972455 -4.01229919 8.21497337 3 11 C1.92598892 8.08482708 1.22189824 6.22189824 -1 4 C-0.625 1.875 -0.625 1.875 0 0 Z " fill="#0C0C0A" transform="translate(121,48)"/>
<path d="M0 0 C0.66 0 1.32 0 2 0 C1.38655243 1.68698082 0.70286303 3.34827188 0 5 C-0.495 6.19625 -0.99 7.3925 -1.5 8.625 C-3.40766458 11.94548383 -5.22903705 12.68568135 -8.875 13.6875 C-9.74898437 13.89375 -10.62296875 14.1 -11.5234375 14.3125 C-14.92983824 15.25812544 -17.15828715 16.93975818 -20 19 C-20.66 19 -21.32 19 -22 19 C-20.76564271 15.15977732 -18.42716198 13.73660534 -14.953125 11.8828125 C-12.02897665 10.56109745 -9.11492866 9.76283967 -6 9 C-8.76148156 6.83408629 -8.76148156 6.83408629 -11.5625 6.6875 C-12.366875 6.460625 -13.17125 6.23375 -14 6 C-15.3125 3.4375 -15.3125 3.4375 -16 1 C-14.02 1 -12.04 1 -10 1 C-10 1.99 -10 2.98 -10 4 C-7.03 4.495 -7.03 4.495 -4 5 C-3.38125 4.175 -2.7625 3.35 -2.125 2.5 C-1.42375 1.675 -0.7225 0.85 0 0 Z " fill="#19190F" transform="translate(92,63)"/>
<path d="M0 0 C-1.19534912 2.82537064 -2.56124041 4.67075074 -4.5625 7.0625 C-7.97132295 11.17056869 -8.41096992 14.42680845 -8.34375 19.5859375 C-7.56267494 25.07121466 -4.35514598 28.80242913 -0.3125 32.375 C4.00988787 34.49541669 8.26399342 35.28866304 13 36 C13 36.33 13 36.66 13 37 C3.29161633 37.62188935 3.29161633 37.62188935 -1.375 35.375 C-7.49861974 29.83458214 -10.65372415 25.36307565 -11.3125 17.0625 C-11.12223744 11.18674455 -8.97189896 6.77445197 -4.9375 2.5625 C-2 0 -2 0 0 0 Z " fill="#11120C" transform="translate(79,82)"/>
<path d="M0 0 C10.60992336 -0.51802519 10.60992336 -0.51802519 14.875 1.5625 C18.35312878 3.16243924 19.45689511 3.21211483 23 2 C23.845625 1.62875 24.69125 1.2575 25.5625 0.875 C28.24749062 -0.08884279 29.37141956 0.02645169 32 1 C22.58026756 9.10535117 22.58026756 9.10535117 19.125 8.875 C17.27845529 8.11465806 15.44984465 7.31104207 13.625 6.5 C10.32656674 5.13513107 7.52315293 4.4296528 4 4 C4 3.67 4 3.34 4 3 C5.65 2.67 7.3 2.34 9 2 C6.03 1.67 3.06 1.34 0 1 C0 0.67 0 0.34 0 0 Z " fill="#E4E417" transform="translate(105,58)"/>
<path d="M0 0 C0 1.65 0 3.3 0 5 C-0.66 5 -1.32 5 -2 5 C-2.66 6.98 -3.32 8.96 -4 11 C-3.05125 11.309375 -2.1025 11.61875 -1.125 11.9375 C2 13 2 13 4 14 C4 14.66 4 15.32 4 16 C-0.75 15.125 -0.75 15.125 -3 14 C-5.06059241 13.90201379 -7.12458463 13.87025221 -9.1875 13.875 C-10.35796875 13.87757812 -11.5284375 13.88015625 -12.734375 13.8828125 C-15.28197899 13.9742337 -17.469242 14.20520432 -19.9375 14.75 C-23 15 -23 15 -26.4375 13.1875 C-27.283125 12.465625 -28.12875 11.74375 -29 11 C-29 10.34 -29 9.68 -29 9 C-28.278125 9.309375 -27.55625 9.61875 -26.8125 9.9375 C-24.17505085 10.93386968 -21.79060057 11.62289181 -19 12 C-18.34 11.67 -17.68 11.34 -17 11 C-15.12620395 10.92966231 -13.24998898 10.9156978 -11.375 10.9375 C-9.87066406 10.95103516 -9.87066406 10.95103516 -8.3359375 10.96484375 C-7.56507813 10.97644531 -6.79421875 10.98804688 -6 11 C-5.96261719 10.37351562 -5.92523438 9.74703125 -5.88671875 9.1015625 C-5.82097656 8.28429688 -5.75523437 7.46703125 -5.6875 6.625 C-5.62949219 5.81289063 -5.57148438 5.00078125 -5.51171875 4.1640625 C-4.77930591 1.06668303 -3.17720825 0 0 0 Z " fill="#10110C" transform="translate(177,49)"/>
<path d="M0 0 C0.66 0 1.32 0 2 0 C3.25 2.6875 3.25 2.6875 4 6 C2.25 8.5 2.25 8.5 0 11 C-1.25556887 14.17921787 -1.25556887 14.17921787 -2 17 C-3.03060547 17.19916016 -3.03060547 17.19916016 -4.08203125 17.40234375 C-5.43361328 17.66724609 -5.43361328 17.66724609 -6.8125 17.9375 C-7.70582031 18.11152344 -8.59914063 18.28554687 -9.51953125 18.46484375 C-12.11397171 18.97741153 -12.11397171 18.97741153 -15 20 C-15 18.35 -15 16.7 -15 15 C-11.49223216 13.39644899 -8.85645121 12.77963136 -5 13 C-4.9175 12.46375 -4.835 11.9275 -4.75 11.375 C-4 9 -4 9 -1.9375 5.9375 C0.27529737 3.16910067 0.27529737 3.16910067 0 0 Z " fill="#FEFD08" transform="translate(93,62)"/>
<path d="M0 0 C1.32 0 2.64 0 4 0 C4.95376567 3.20782086 5.11621181 6.08187396 5.09765625 9.421875 C5.09443359 10.44667969 5.09121094 11.47148438 5.08789062 12.52734375 C5.07951172 13.59082031 5.07113281 14.65429688 5.0625 15.75 C5.05798828 16.82894531 5.05347656 17.90789062 5.04882812 19.01953125 C5.03705727 21.67974383 5.02061399 24.33984365 5 27 C4.67 27 4.34 27 4 27 C3.67 24.69 3.34 22.38 3 20 C2.01 19.67 1.02 19.34 0 19 C0 12.73 0 6.46 0 0 Z " fill="#7E7F16" transform="translate(29,100)"/>
<path d="M0 0 C0.70125 -0.01675781 1.4025 -0.03351562 2.125 -0.05078125 C2.74375 0.06910156 3.3625 0.18898438 4 0.3125 C6 3.3125 6 3.3125 5.75 5.8125 C5 8.3125 5 8.3125 3 11.3125 C-1.95 9.3325 -1.95 9.3325 -7 7.3125 C-5.89901866 1.80759331 -5.50111569 0.03033704 0 0 Z " fill="#DADD15" transform="translate(120,12.6875)"/>
<path d="M0 0 C1.32 0.33 2.64 0.66 4 1 C4 1.66 4 2.32 4 3 C4.4125 2.505 4.825 2.01 5.25 1.5 C7 0 7 0 11 0 C11 4.29 11 8.58 11 13 C10.01 13 9.02 13 8 13 C7.67 11.02 7.34 9.04 7 7 C6.67 7.66 6.34 8.32 6 9 C5.34 9 4.68 9 4 9 C3.67 8.34 3.34 7.68 3 7 C2.67 8.98 2.34 10.96 2 13 C1.34 13 0.68 13 0 13 C0 8.71 0 4.42 0 0 Z " fill="#16160C" transform="translate(109,92)"/>
<path d="M0 0 C1.51400391 0.01740234 1.51400391 0.01740234 3.05859375 0.03515625 C4.07050781 0.04417969 5.08242187 0.05320312 6.125 0.0625 C7.29869141 0.07990234 7.29869141 0.07990234 8.49609375 0.09765625 C8.49609375 0.75765625 8.49609375 1.41765625 8.49609375 2.09765625 C4.04109375 2.59265625 4.04109375 2.59265625 -0.50390625 3.09765625 C-0.83390625 7.38765625 -1.16390625 11.67765625 -1.50390625 16.09765625 C2.78609375 16.09765625 7.07609375 16.09765625 11.49609375 16.09765625 C11.49609375 13.78765625 11.49609375 11.47765625 11.49609375 9.09765625 C12.15609375 8.76765625 12.81609375 8.43765625 13.49609375 8.09765625 C13.52298591 9.57672517 13.54243996 11.05593108 13.55859375 12.53515625 C13.57019531 13.35886719 13.58179688 14.18257812 13.59375 15.03125 C13.49609375 17.09765625 13.49609375 17.09765625 12.49609375 18.09765625 C9.98473271 18.19740657 7.5070596 18.23647808 4.99609375 18.22265625 C4.29355469 18.22652344 3.59101563 18.23039062 2.8671875 18.234375 C-2.37729247 18.22427003 -2.37729247 18.22427003 -3.50390625 17.09765625 C-3.60371839 14.42034245 -3.642705 11.7746145 -3.62890625 9.09765625 C-3.63277344 8.34742187 -3.63664063 7.5971875 -3.640625 6.82421875 C-3.62856237 0.14151959 -3.62856237 0.14151959 0 0 Z " fill="#080809" transform="translate(224.50390625,109.90234375)"/>
<path d="M0 0 C2.4375 0.75 2.4375 0.75 4.4375 2.75 C4.6875 5.75 4.6875 5.75 4.4375 8.75 C2.4375 10.75 2.4375 10.75 -0.5 11.0625 C-3.5625 10.75 -3.5625 10.75 -5.5 9.625 C-6.5625 7.75 -6.5625 7.75 -6.4375 4.6875 C-5.31039351 0.90364248 -4.04478927 -0.39461359 0 0 Z " fill="#F9F908" transform="translate(92.5625,143.25)"/>
<path d="M0 0 C5.61 0 11.22 0 17 0 C16.34 1.98 15.68 3.96 15 6 C14.67 4.68 14.34 3.36 14 2 C13.01 2 12.02 2 11 2 C10.67 2.99 10.34 3.98 10 5 C10.66 5 11.32 5 12 5 C12 5.66 12 6.32 12 7 C7.38 7 2.76 7 -2 7 C-1.34 4.69 -0.68 2.38 0 0 Z " fill="#A1A22D" transform="translate(106,167)"/>
<path d="M0 0 C0.66 0.99 1.32 1.98 2 3 C2.33 2.01 2.66 1.02 3 0 C6.96 0 10.92 0 15 0 C14.01 0.495 14.01 0.495 13 1 C13.66 2.65 14.32 4.3 15 6 C8.07 6 1.14 6 -6 6 C-6 4.35 -6 2.7 -6 1 C-4 0 -4 0 0 0 Z " fill="#787827" transform="translate(237,131)"/>
<path d="M0 0 C1.84877559 0.47059742 3.69588477 0.9503421 5.52734375 1.484375 C10.2871463 2.47694046 15.16161762 2.14515147 20 2 C19.67 2.639375 19.34 3.27875 19 3.9375 C17.92728775 5.76794567 17.92728775 5.76794567 18 7 C11.86469626 7.08934908 6.05471856 7.08674436 0 6 C-0.99 6.33 -1.98 6.66 -3 7 C-3 5.33333333 -3 3.66666667 -3 2 C-2.01 1.34 -1.02 0.68 0 0 Z " fill="#E9E917" transform="translate(151,124)"/>
<path d="M0 0 C5.28 0 10.56 0 16 0 C16 0.66 16 1.32 16 2 C16.66 2 17.32 2 18 2 C17.67 2.99 17.34 3.98 17 5 C11.06 5 5.12 5 -1 5 C-1.33 4.01 -1.66 3.02 -2 2 C-1.34 2 -0.68 2 0 2 C0 1.34 0 0.68 0 0 Z " fill="#27290E" transform="translate(52,57)"/>
<path d="M0 0 C0.99 0 1.98 0 3 0 C3.66 1.32 4.32 2.64 5 4 C5.33 2.68 5.66 1.36 6 0 C6.99 0 7.98 0 9 0 C9 4.29 9 8.58 9 13 C4.5 10.75 4.5 10.75 3 7 C2.67 8.98 2.34 10.96 2 13 C1.34 13 0.68 13 0 13 C0 8.71 0 4.42 0 0 Z " fill="#070708" transform="translate(157,92)"/>
<path d="M0 0 C0.66 0 1.32 0 2 0 C2.33 1.32 2.66 2.64 3 4 C3.5775 4.12375 4.155 4.2475 4.75 4.375 C7 5 7 5 8.75 6.125 C12.29418039 7.50329237 15.2839796 6.61933673 19 6 C19 5.34 19 4.68 19 4 C20.65 4 22.3 4 24 4 C23.375 6.4375 23.375 6.4375 22 9 C18.875 9.8125 18.875 9.8125 16 10 C16.350625 10.598125 16.70125 11.19625 17.0625 11.8125 C18 14 18 14 17 17 C16.5875 16.54109375 16.175 16.0821875 15.75 15.609375 C12.60597084 12.26884402 9.93307045 9.76146536 5.6875 7.9375 C2.38930273 6.47659637 2.12418894 6.26907605 0.5 2.75 C0.335 1.8425 0.17 0.935 0 0 Z " fill="#12120C" transform="translate(187,70)"/>
<path d="M0 0 C1.65322266 0.01740234 1.65322266 0.01740234 3.33984375 0.03515625 C4.99693359 0.04869141 4.99693359 0.04869141 6.6875 0.0625 C7.54214844 0.07410156 8.39679687 0.08570313 9.27734375 0.09765625 C9.27734375 1.08765625 9.27734375 2.07765625 9.27734375 3.09765625 C9.58358715 4.43747111 9.9118593 5.77277512 10.27734375 7.09765625 C8.69410687 7.12484925 7.11073313 7.14413931 5.52734375 7.16015625 C4.20476563 7.17755859 4.20476563 7.17755859 2.85546875 7.1953125 C0.49545995 7.10591823 -1.46764149 6.76678446 -3.72265625 6.09765625 C-3.76537725 4.4315372 -3.76329457 2.7638274 -3.72265625 1.09765625 C-2.72265625 0.09765625 -2.72265625 0.09765625 0 0 Z " fill="#9B9B27" transform="translate(45.72265625,130.90234375)"/>
<path d="M0 0 C0.33 0 0.66 0 1 0 C1 4.95 1 9.9 1 15 C4.465 14.505 4.465 14.505 8 14 C8 16.97 8 19.94 8 23 C5.36 23 2.72 23 0 23 C0 15.41 0 7.82 0 0 Z " fill="#7A7D19" transform="translate(173,142)"/>
<path d="M0 0 C1.65 0.33 3.3 0.66 5 1 C6.59138085 5.17737474 7.21278058 8.53160785 7 13 C6.34 13 5.68 13 5 13 C5 12.01 5 11.02 5 10 C3.35 10 1.7 10 0 10 C0 10.99 0 11.98 0 13 C-0.99 12.67 -1.98 12.34 -3 12 C-2.01 8.04 -1.02 4.08 0 0 Z " fill="#0C0C08" transform="translate(148,92)"/>
<path d="M0 0 C0.99 0 1.98 0 3 0 C2.4520917 4.2829452 0.97567196 6.85135641 -1.5625 10.3125 C-2.20316406 11.19550781 -2.84382812 12.07851562 -3.50390625 12.98828125 C-4.24447266 13.98408203 -4.24447266 13.98408203 -5 15 C-8.22793788 14.29305493 -9.93804095 13.68054677 -12 11 C-12 10.01 -12 9.02 -12 8 C-9.03 8.495 -9.03 8.495 -6 9 C-5.60167969 8.3503125 -5.20335937 7.700625 -4.79296875 7.03125 C-4.26316406 6.1959375 -3.73335937 5.360625 -3.1875 4.5 C-2.40439453 3.24703125 -2.40439453 3.24703125 -1.60546875 1.96875 C-0.81076172 0.99421875 -0.81076172 0.99421875 0 0 Z " fill="#0D0E0A" transform="translate(237,108)"/>
<path d="M0 0 C0.33 0 0.66 0 1 0 C1 1.65 1 3.3 1 5 C3.51083114 3.74458443 3.87125446 2.49936512 5 0 C6.81242052 -0.02687279 8.62495233 -0.04633715 10.4375 -0.0625 C11.44683594 -0.07410156 12.45617187 -0.08570313 13.49609375 -0.09765625 C16 0 16 0 17 1 C17 2.65 17 4.3 17 6 C11.39 6 5.78 6 0 6 C0 4.02 0 2.04 0 0 Z " fill="#74752D" transform="translate(180,167)"/>
<path d="M0 0 C3.375 -0.125 3.375 -0.125 7 0 C7.66 0.66 8.32 1.32 9 2 C8.44444444 6.55555556 8.44444444 6.55555556 7 8 C5.33382885 8.04063832 3.66611905 8.042721 2 8 C2 9.65 2 11.3 2 13 C1.34 13 0.68 13 0 13 C0 8.71 0 4.42 0 0 Z " fill="#585917" transform="translate(122,92)"/>
<path d="M0 0 C-0.66 1.32 -1.32 2.64 -2 4 C-0.68 3.34 0.64 2.68 2 2 C1.67 3.65 1.34 5.3 1 7 C0.34 7 -0.32 7 -1 7 C-1.33 8.32 -1.66 9.64 -2 11 C-4.64 11 -7.28 11 -10 11 C-10 10.34 -10 9.68 -10 9 C-8.35 8.67 -6.7 8.34 -5 8 C-6.32 7.01 -7.64 6.02 -9 5 C-8.34 5 -7.68 5 -7 5 C-7 4.01 -7 3.02 -7 2 C-7.99 1.67 -8.98 1.34 -10 1 C-6.21812119 -0.83691257 -4.05431692 -1.15837626 0 0 Z " fill="#1F210D" transform="translate(239,62)"/>
<path d="M0 0 C0.33 0 0.66 0 1 0 C1 6.27 1 12.54 1 19 C5.95 19 10.9 19 16 19 C16 12.73 16 6.46 16 0 C16.33 0 16.66 0 17 0 C17.19592461 3.31205884 17.38032746 6.62465854 17.5625 9.9375 C17.61857422 10.88302734 17.67464844 11.82855469 17.73242188 12.80273438 C17.78076172 13.70185547 17.82910156 14.60097656 17.87890625 15.52734375 C17.9260376 16.35999756 17.97316895 17.19265137 18.02172852 18.05053711 C18 20 18 20 17 21 C15.65732587 21.08631874 14.31025678 21.10706473 12.96484375 21.09765625 C11.87224243 21.09390991 11.87224243 21.09390991 10.75756836 21.09008789 C9.8269458 21.08098389 8.89632324 21.07187988 7.9375 21.0625 C3.5134375 21.0315625 3.5134375 21.0315625 -1 21 C-0.67 14.07 -0.34 7.14 0 0 Z " fill="#25280D" transform="translate(35,106)"/>
<path d="M0 0 C1.134375 0.020625 2.26875 0.04125 3.4375 0.0625 C3.7675 1.3825 4.0975 2.7025 4.4375 4.0625 C4.7675 3.4025 5.0975 2.7425 5.4375 2.0625 C8 1.4375 8 1.4375 10.4375 1.0625 C10.4375 1.7225 10.4375 2.3825 10.4375 3.0625 C11.0975 3.0625 11.7575 3.0625 12.4375 3.0625 C12.1075 4.3825 11.7775 5.7025 11.4375 7.0625 C6.8175 7.0625 2.1975 7.0625 -2.5625 7.0625 C-2.5625 5.4125 -2.5625 3.7625 -2.5625 2.0625 C-3.2225 1.7325 -3.8825 1.4025 -4.5625 1.0625 C-3.5625 0.0625 -3.5625 0.0625 0 0 Z " fill="#51512C" transform="translate(75.5625,165.9375)"/>
<path d="M0 0 C1.134375 0.020625 2.26875 0.04125 3.4375 0.0625 C3.7675 1.3825 4.0975 2.7025 4.4375 4.0625 C3.4475 4.0625 2.4575 4.0625 1.4375 4.0625 C1.4375 3.4025 1.4375 2.7425 1.4375 2.0625 C0.4475 2.0625 -0.5425 2.0625 -1.5625 2.0625 C-1.5625 4.7025 -1.5625 7.3425 -1.5625 10.0625 C-0.5725 10.0625 0.4175 10.0625 1.4375 10.0625 C1.4375 9.4025 1.4375 8.7425 1.4375 8.0625 C2.4275 8.0625 3.4175 8.0625 4.4375 8.0625 C3.5625 11.9375 3.5625 11.9375 2.4375 13.0625 C0 13.25 0 13.25 -2.5625 13.0625 C-4.5625 11.0625 -4.5625 11.0625 -4.79296875 8.71484375 C-4.77878906 7.81894531 -4.76460937 6.92304687 -4.75 6 C-4.74355469 5.10152344 -4.73710937 4.20304687 -4.73046875 3.27734375 C-4.4491692 -0.43188516 -3.88660482 0.06818605 0 0 Z " fill="#0F0F0B" transform="translate(172.5625,91.9375)"/>
<path d="M0 0 C0.94875 0.04125 1.8975 0.0825 2.875 0.125 C3.205 1.445 3.535 2.765 3.875 4.125 C2.225 3.795 0.575 3.465 -1.125 3.125 C-1.455 5.435 -1.785 7.745 -2.125 10.125 C-1.135 10.125 -0.145 10.125 0.875 10.125 C0.875 9.465 0.875 8.805 0.875 8.125 C1.865 8.125 2.855 8.125 3.875 8.125 C3.875 9.445 3.875 10.765 3.875 12.125 C0.5 12.75 0.5 12.75 -3.125 13.125 C-5.125 11.125 -5.125 11.125 -5.390625 9.03125 C-5.38289063 7.84015625 -5.38289063 7.84015625 -5.375 6.625 C-5.38015625 5.8309375 -5.3853125 5.036875 -5.390625 4.21875 C-4.9221169 0.52580383 -3.55221903 0.14208876 0 0 Z " fill="#212110" transform="translate(92.125,91.875)"/>
<path d="M0 0 C3.96 0 7.92 0 12 0 C12 1.98 12 3.96 12 6 C10.68 5.67 9.36 5.34 8 5 C8 4.01 8 3.02 8 2 C7.67 2.33 7.34 2.66 7 3 C7 4.32 7 5.64 7 7 C3.98968256 7.93423645 3.13349732 8.04449911 0 7 C0 4.69 0 2.38 0 0 Z " fill="#8E8F2A" transform="translate(167,167)"/>
<path d="M0 0 C1.37478516 0.01740234 1.37478516 0.01740234 2.77734375 0.03515625 C3.69644531 0.04417969 4.61554687 0.05320312 5.5625 0.0625 C6.27277344 0.07410156 6.98304687 0.08570312 7.71484375 0.09765625 C7.71484375 2.40765625 7.71484375 4.71765625 7.71484375 7.09765625 C4.08484375 7.09765625 0.45484375 7.09765625 -3.28515625 7.09765625 C-3.32769981 5.09810879 -3.32596408 3.09723989 -3.28515625 1.09765625 C-2.28515625 0.09765625 -2.28515625 0.09765625 0 0 Z " fill="#7F8118" transform="translate(41.28515625,108.90234375)"/>
<path d="M0 0 C1.32 0 2.64 0 4 0 C4.66 1.65 5.32 3.3 6 5 C5.01 5 4.02 5 3 5 C3 4.34 3 3.68 3 3 C2.34 3 1.68 3 1 3 C0.731875 3.71542969 0.46375 4.43085938 0.1875 5.16796875 C-1.01731307 8.04128939 -2.41237112 10.63337626 -4 13.3125 C-4.515625 14.19550781 -5.03125 15.07851563 -5.5625 15.98828125 C-6.2740625 16.98408203 -6.2740625 16.98408203 -7 18 C-7.66 18 -8.32 18 -9 18 C-9 19.32 -9 20.64 -9 22 C-9.66 22 -10.32 22 -11 22 C-10.46190978 16.73515646 -7.80846552 12.66076447 -5.1875 8.1875 C-4.74857422 7.39923828 -4.30964844 6.61097656 -3.85742188 5.79882812 C-3.42365234 5.05439453 -2.98988281 4.30996094 -2.54296875 3.54296875 C-2.15133545 2.86258545 -1.75970215 2.18220215 -1.35620117 1.48120117 C-0.90865479 0.99240479 -0.4611084 0.5036084 0 0 Z " fill="#17180A" transform="translate(187,12)"/>
<path d="M0 0 C0.66 0 1.32 0 2 0 C3.42857143 8.57142857 3.42857143 8.57142857 1 12 C-1.31 12 -3.62 12 -6 12 C-4.43358249 7.69235185 -2.31663844 3.93828536 0 0 Z " fill="#F2F30B" transform="translate(185,20)"/>
<path d="M0 0 C2.64 0 5.28 0 8 0 C8 0.66 8 1.32 8 2 C6.02 2 4.04 2 2 2 C2 2.99 2 3.98 2 5 C3.32 5 4.64 5 6 5 C6 5.66 6 6.32 6 7 C4.68 7 3.36 7 2 7 C2 8.32 2 9.64 2 11 C3.98 11 5.96 11 8 11 C8 11.66 8 12.32 8 13 C5.36 13 2.72 13 0 13 C0 8.71 0 4.42 0 0 Z " fill="#030307" transform="translate(179,92)"/>
<path d="M0 0 C0.66 0 1.32 0 2 0 C2 0.66 2 1.32 2 2 C2.556875 2.061875 3.11375 2.12375 3.6875 2.1875 C7.05802012 3.3717368 8.7687468 5.25874607 11 8 C10.8125 10.3125 10.8125 10.3125 10 12 C6.18063472 10.44396229 3.73955562 8.04395069 1 5 C1 4.34 1 3.68 1 3 C0.34 3 -0.32 3 -1 3 C-0.67 2.01 -0.34 1.02 0 0 Z " fill="#1C1D0D" transform="translate(97,153)"/>
<path d="M0 0 C2.64 0.33 5.28 0.66 8 1 C8 3 8 5 8 7 C5.03 7 2.06 7 -1 7 C-2 4 -2 4 -1.0625 1.8125 C-0.5365625 0.9153125 -0.5365625 0.9153125 0 0 Z " fill="#7C7D26" transform="translate(136,37)"/>
<path d="M0 0 C3.63 0 7.26 0 11 0 C11.33 0.99 11.66 1.98 12 3 C10.0625 6.1875 10.0625 6.1875 8 9 C7.401875 8.690625 6.80375 8.38125 6.1875 8.0625 C3.91043228 6.89790296 3.91043228 6.89790296 1 6 C1 5.01 1 4.02 1 3 C3.97 3 6.94 3 10 3 C10 2.34 10 1.68 10 1 C6.7 1 3.4 1 0 1 C0 0.67 0 0.34 0 0 Z " fill="#E4E612" transform="translate(223,109)"/>
<path d="M0 0 C2.475 0.99 2.475 0.99 5 2 C5 1.34 5 0.68 5 0 C5.66 0 6.32 0 7 0 C7 2.97 7 5.94 7 9 C6.34 9 5.68 9 5 9 C5 8.01 5 7.02 5 6 C4.01 6 3.02 6 2 6 C2 6.66 2 7.32 2 8 C1.01 8 0.02 8 -1 8 C-1.04241723 5.66705225 -1.04092937 3.33297433 -1 1 C-0.67 0.67 -0.34 0.34 0 0 Z " fill="#D7D820" transform="translate(91,94)"/>
<path d="M0 0 C1.94140625 0.34375 1.94140625 0.34375 4.44140625 1.90625 C6.44619406 5.16403019 6.23003484 7.59157833 5.94140625 11.34375 C4.95140625 11.34375 3.96140625 11.34375 2.94140625 11.34375 C2.28140625 9.03375 1.62140625 6.72375 0.94140625 4.34375 C-2.46422227 3.56532062 -5.56625131 3.24396879 -9.05859375 3.34375 C-6.74235281 -0.1306114 -3.99641854 -0.17663728 0 0 Z " fill="#16170A" transform="translate(94.05859375,140.65625)"/>
<path d="M0 0 C0.33 0 0.66 0 1 0 C1 1.65 1 3.3 1 5 C1.99 5 2.98 5 4 5 C4.33 3.35 4.66 1.7 5 0 C5.99 0.33 6.98 0.66 8 1 C10.00875442 0.72428861 12.01178687 0.39764263 14 0 C13.67 1.98 13.34 3.96 13 6 C8.71 6 4.42 6 0 6 C0 4.02 0 2.04 0 0 Z " fill="#5C5D2B" transform="translate(51,65)"/>
<path d="M0 0 C0.66 0 1.32 0 2 0 C1.67 2.97 1.34 5.94 1 9 C0.24074219 9.06058594 -0.51851562 9.12117188 -1.30078125 9.18359375 C-2.79158203 9.30927734 -2.79158203 9.30927734 -4.3125 9.4375 C-5.29863281 9.51871094 -6.28476563 9.59992188 -7.30078125 9.68359375 C-10.09375599 9.91812559 -10.09375599 9.91812559 -13 11 C-13 10.01 -13 9.02 -13 8 C-8.8794254 6.00214565 -5.54805635 5.82164485 -1 6 C-0.67 4.02 -0.34 2.04 0 0 Z " fill="#18180F" transform="translate(92,73)"/>
<path d="M0 0 C0.99 0 1.98 0 3 0 C3 3.63 3 7.26 3 11 C4.65 11 6.3 11 8 11 C8 11.66 8 12.32 8 13 C5.36 13 2.72 13 0 13 C0 8.71 0 4.42 0 0 Z " fill="#07070C" transform="translate(132,92)"/>
<path d="M0 0 C0.66 0 1.32 0 2 0 C3.25 2.6875 3.25 2.6875 4 6 C2.25 8.5 2.25 8.5 0 11 C-1.25556887 14.17921787 -1.25556887 14.17921787 -2 17 C-2.12375 16.360625 -2.2475 15.72125 -2.375 15.0625 C-2.58125 14.381875 -2.7875 13.70125 -3 13 C-3.66 12.67 -4.32 12.34 -5 12 C-4.02992484 9.31363803 -3.11792985 7.15421596 -1.375 4.875 C0.29568183 2.9843199 0.29568183 2.9843199 0 0 Z " fill="#E1E119" transform="translate(93,62)"/>
<path d="M0 0 C4.62 0 9.24 0 14 0 C13.67 2.31 13.34 4.62 13 7 C12.67 7 12.34 7 12 7 C12 5.35 12 3.7 12 2 C10.35333797 2.1135629 8.70763918 2.24117381 7.0625 2.375 C6.14597656 2.44460937 5.22945312 2.51421875 4.28515625 2.5859375 C3.53105469 2.72257812 2.77695312 2.85921875 2 3 C1.67 3.66 1.34 4.32 1 5 C4.3 5 7.6 5 11 5 C11 5.33 11 5.66 11 6 C7.37 6.33 3.74 6.66 0 7 C0 4.69 0 2.38 0 0 Z " fill="#FDFD02" transform="translate(37,107)"/>
<path d="M0 0 C6.93 0 13.86 0 21 0 C19.60683123 2.78633754 17.84019484 2.93492694 15 4 C14.67 4.33 14.34 4.66 14 5 C12.33382885 5.04063832 10.66611905 5.042721 9 5 C8.67 5.66 8.34 6.32 8 7 C7.690625 6.0409375 7.690625 6.0409375 7.375 5.0625 C6.10461791 2.65074923 6.10461791 2.65074923 2.875 2.25 C1.92625 2.1675 0.9775 2.085 0 2 C0 1.34 0 0.68 0 0 Z " fill="#F4F517" transform="translate(50,61)"/>
<path d="M0 0 C0 1.98 0 3.96 0 6 C-2.97 5.67 -5.94 5.34 -9 5 C-9 4.34 -9 3.68 -9 3 C-6.36 3 -3.72 3 -1 3 C-1 2.34 -1 1.68 -1 1 C-1.99 1.495 -1.99 1.495 -3 2 C-5.3329866 2.04022391 -7.66706666 2.04320247 -10 2 C-10 3.32 -10 4.64 -10 6 C-10.99 6 -11.98 6 -13 6 C-13 4.68 -13 3.36 -13 2 C-11.58461283 1.66127487 -10.16762037 1.32925376 -8.75 1 C-7.56664062 0.7215625 -7.56664062 0.7215625 -6.359375 0.4375 C-4 0 -4 0 0 0 Z " fill="#767A1A" transform="translate(238,55)"/>
<path d="M0 0 C0 1.98 0 3.96 0 6 C-0.99 6.495 -0.99 6.495 -2 7 C-2.65213292 9.02463255 -2.65213292 9.02463255 -3 11 C-3.99 10.34 -4.98 9.68 -6 9 C-5.34 9 -4.68 9 -4 9 C-4 8.34 -4 7.68 -4 7 C-5.98 7 -7.96 7 -10 7 C-9.01 6.34 -8.02 5.68 -7 5 C-7 3.68 -7 2.36 -7 1 C-4.57661181 -0.21169409 -2.71837311 0 0 0 Z " fill="#ACAD23" transform="translate(127,38)"/>
<path d="M0 0 C0.33 0 0.66 0 1 0 C1.33 3.3 1.66 6.6 2 10 C-0.31 10.33 -2.62 10.66 -5 11 C-5.33 10.01 -5.66 9.02 -6 8 C-5.34 7.67 -4.68 7.34 -4 7 C-4 5.68 -4 4.36 -4 3 C-3.01 2.67 -2.02 2.34 -1 2 C-0.67 1.34 -0.34 0.68 0 0 Z " fill="#4C4D12" transform="translate(192,154)"/>
<path d="M0 0 C1.32 0 2.64 0 4 0 C4 0.66 4 1.32 4 2 C3.34 2 2.68 2 2 2 C2 4.97 2 7.94 2 11 C2.66 11 3.32 11 4 11 C4 11.66 4 12.32 4 13 C2.35 12.67 0.7 12.34 -1 12 C-1.02687279 10.18757948 -1.04633715 8.37504767 -1.0625 6.5625 C-1.07410156 5.55316406 -1.08570312 4.54382813 -1.09765625 3.50390625 C-1 1 -1 1 0 0 Z " fill="#1A1A0C" transform="translate(99,92)"/>
<path d="M0 0 C-0.33 0.99 -0.66 1.98 -1 3 C-3.07421875 3.80859375 -3.07421875 3.80859375 -5.6875 4.4375 C-10.22214471 5.65711832 -13.22759882 7.26500914 -17 10 C-17.66 10 -18.32 10 -19 10 C-17.77136586 6.17758269 -15.47535257 4.78296928 -12.01171875 2.953125 C-2.8115653 -1.40578265 -2.8115653 -1.40578265 0 0 Z " fill="#14140F" transform="translate(89,72)"/>
<path d="M0 0 C2.64 0 5.28 0 8 0 C8 1.98 8 3.96 8 6 C5.33333333 6 2.66666667 6 0 6 C0 4.02 0 2.04 0 0 Z " fill="#6F7026" transform="translate(106,167)"/>
<path d="M0 0 C2.64 0 5.28 0 8 0 C8 1.98 8 3.96 8 6 C5.36 6 2.72 6 0 6 C0 4.02 0 2.04 0 0 Z " fill="#707129" transform="translate(198,167)"/>
<path d="M0 0 C1.65 0 3.3 0 5 0 C5 1.65 5 3.3 5 5 C5.99 5 6.98 5 8 5 C8 3.35 8 1.7 8 0 C8.33 0 8.66 0 9 0 C9 2.31 9 4.62 9 7 C6.03 6.67 3.06 6.34 0 6 C0 4.02 0 2.04 0 0 Z " fill="#7A7A28" transform="translate(32,131)"/>
<path d="M0 0 C0.639375 0.268125 1.27875 0.53625 1.9375 0.8125 C7.19303267 2.85035961 12.5129833 4.69356745 18 6 C18 6.66 18 7.32 18 8 C10.99034226 7.84199542 5.36436247 6.80994512 0 2 C0 1.34 0 0.68 0 0 Z " fill="#13130D" transform="translate(71,118)"/>
<path d="M0 0 C0.99 0 1.98 0 3 0 C3.5326514 6.258654 1.81849506 10.45108785 -1 16 C-1.99 16 -2.98 16 -4 16 C-3.69320312 15.29488281 -3.38640625 14.58976562 -3.0703125 13.86328125 C-1.98405502 10.95734427 -1.3902942 8.24245848 -0.875 5.1875 C-0.70742187 4.21167969 -0.53984375 3.23585938 -0.3671875 2.23046875 C-0.24601563 1.49441406 -0.12484375 0.75835937 0 0 Z " fill="#313117" transform="translate(206,97)"/>
<path d="M0 0 C2.64 0 5.28 0 8 0 C8 3 8 3 7 6 C4.69 6 2.38 6 0 6 C0 4.02 0 2.04 0 0 Z " fill="#7A7B2C" transform="translate(243,80)"/>
<path d="M0 0 C0.66 0.99 1.32 1.98 2 3 C2.66 2.34 3.32 1.68 4 1 C4.66 2.32 5.32 3.64 6 5 C1.95858806 5.63394697 -1.9065307 6.12404452 -6 6 C-6 4.35 -6 2.7 -6 1 C-4 0 -4 0 0 0 Z " fill="#494A24" transform="translate(237,131)"/>
<path d="M0 0 C4.39335145 -0.05907027 6.35040444 -0.06317673 9.88671875 2.78125 C10.58796875 3.668125 11.28921875 4.555 12.01171875 5.46875 C12.60984375 6.066875 13.20796875 6.665 13.82421875 7.28125 C14.21609375 7.673125 14.60796875 8.065 15.01171875 8.46875 C12.01171875 8.46875 12.01171875 8.46875 9.44921875 6.53125 C5.3851367 3.61951527 0.86869476 3.66072534 -3.98828125 3.46875 C-1.98828125 0.46875 -1.98828125 0.46875 0 0 Z " fill="#3A3B1A" transform="translate(86.98828125,116.53125)"/>
<path d="M0 0 C0.99 0 1.98 0 3 0 C3 4.29 3 8.58 3 13 C2.01 13 1.02 13 0 13 C0 8.71 0 4.42 0 0 Z " fill="#08080E" transform="translate(141,92)"/>
<path d="M0 0 C2.31 0 4.62 0 7 0 C7 1.98 7 3.96 7 6 C4.36 5.67 1.72 5.34 -1 5 C-0.67 3.35 -0.34 1.7 0 0 Z " fill="#6E6F2D" transform="translate(235,80)"/>
<path d="M0 0 C0.66 0 1.32 0 2 0 C3.76062164 3.32561865 4.10784228 4.59173995 3.125 8.3125 C2.75375 9.199375 2.3825 10.08625 2 11 C1.34 11 0.68 11 0 11 C-1.7578125 5.04296875 -1.7578125 5.04296875 -2 3 C-1.34 2.01 -0.68 1.02 0 0 Z " fill="#919214" transform="translate(188,15)"/>
<path d="M0 0 C4.75 0.875 4.75 0.875 7 2 C9.04055005 2.07065617 11.08334257 2.08421976 13.125 2.0625 C14.22070312 2.05347656 15.31640625 2.04445313 16.4453125 2.03515625 C17.28835937 2.02355469 18.13140625 2.01195313 19 2 C19 2.66 19 3.32 19 4 C13.8499337 5.71668877 9.05893616 5.66478218 4.0625 3.625 C1 2 1 2 0 0 Z " fill="#070708" transform="translate(151,122)"/>
<path d="M0 0 C1.65 0.33 3.3 0.66 5 1 C5.33 2.65 5.66 4.3 6 6 C5.34 6 4.68 6 4 6 C4 6.66 4 7.32 4 8 C3.01 8 2.02 8 1 8 C-1.125 3.375 -1.125 3.375 0 0 Z " fill="#3A3A17" transform="translate(148,92)"/>
<path d="M0 0 C1.32 0 2.64 0 4 0 C4 0.66 4 1.32 4 2 C3.34 2 2.68 2 2 2 C2 3.32 2 4.64 2 6 C3.32 6.33 4.64 6.66 6 7 C4.68 7.33 3.36 7.66 2 8 C2 9.65 2 11.3 2 13 C1.34 13 0.68 13 0 13 C0 8.71 0 4.42 0 0 Z " fill="#000003" transform="translate(122,92)"/>
<path d="M0 0 C-0.875 3.875 -0.875 3.875 -2 5 C-2 5.66 -2 6.32 -2 7 C-2.99 7 -3.98 7 -5 7 C-5.33 7.66 -5.66 8.32 -6 9 C-6.33 6.36 -6.66 3.72 -7 1 C-4 0 -4 0 0 0 Z " fill="#040505" transform="translate(190,141)"/>
<path d="M0 0 C-0.33 1.98 -0.66 3.96 -1 6 C-3.31 5.67 -5.62 5.34 -8 5 C-8 3.68 -8 2.36 -8 1 C-5.29120665 -0.35439668 -2.99066732 -0.06501451 0 0 Z " fill="#9D9D30" transform="translate(232,131)"/>
<path d="M0 0 C4.62189073 -0.25677171 7.23627587 0.48823646 10.75 3.5 C12 5 12 5 12 7 C10.02 7 8.04 7 6 7 C5.62875 6.1028125 5.62875 6.1028125 5.25 5.1875 C3.83629988 2.71352479 2.34944617 1.56629745 0 0 Z " fill="#1E1E10" transform="translate(202,114)"/>
<path d="M0 0 C0.66 0 1.32 0 2 0 C2.33 1.32 2.66 2.64 3 4 C3.515625 4.103125 4.03125 4.20625 4.5625 4.3125 C7.86026435 5.24263866 10.86633332 6.61395512 14 8 C13.01 8.495 13.01 8.495 12 9 C11.67 9.66 11.34 10.32 11 11 C10.443125 10.54625 9.88625 10.0925 9.3125 9.625 C7.07528227 7.87597207 7.07528227 7.87597207 4.375 7.1875 C2 6 2 6 0.6875 2.875 C0.460625 1.92625 0.23375 0.9775 0 0 Z " fill="#1A1A11" transform="translate(187,70)"/>
<path d="M0 0 C1.32 0 2.64 0 4 0 C3.34 1.32 2.68 2.64 2 4 C3.32 3.34 4.64 2.68 6 2 C5.67 3.65 5.34 5.3 5 7 C2.625 7.125 2.625 7.125 0 7 C-0.66 6.34 -1.32 5.68 -2 5 C-1.46428571 1.46428571 -1.46428571 1.46428571 0 0 Z " fill="#DBDE1F" transform="translate(235,62)"/>
<path d="M0 0 C0.33 0 0.66 0 1 0 C1 2.64 1 5.28 1 8 C-1.31 8 -3.62 8 -6 8 C-6 5.69 -6 3.38 -6 1 C-5.67 1.99 -5.34 2.98 -5 4 C-3.35 4 -1.7 4 0 4 C0 2.68 0 1.36 0 0 Z " fill="#0F0F07" transform="translate(180,157)"/>
<path d="M0 0 C2.625 -0.1875 2.625 -0.1875 5 0 C3.68 0.33 2.36 0.66 1 1 C0.95875 1.556875 0.9175 2.11375 0.875 2.6875 C-0.46624678 6.23222364 -3.00924722 7.78684295 -6 10 C-6.99 10.33 -7.98 10.66 -9 11 C-9 10.01 -9 9.02 -9 8 C-7.5390625 6.71875 -7.5390625 6.71875 -5.625 5.5 C-2.88542214 3.74125866 -1.88476668 2.82715002 0 0 Z " fill="#171710" transform="translate(179,115)"/>
<path d="M0 0 C1.41732422 -0.02126953 1.41732422 -0.02126953 2.86328125 -0.04296875 C5.83156882 0.19925665 7.99617165 0.94723393 10.6875 2.1875 C7.42151767 3.1757878 4.52662563 3.26154899 1.125 3.1875 C-2.12360719 3.11697393 -4.20457566 3.15152522 -7.3125 4.1875 C-7.3125 3.1975 -7.3125 2.2075 -7.3125 1.1875 C-4.75330818 -0.09209591 -2.85765972 0.01933464 0 0 Z " fill="#0D0D0C" transform="translate(166.3125,65.8125)"/>
<path d="M0 0 C0.99 0 1.98 0 3 0 C3.6875 2.75 3.6875 2.75 4 6 C2.5625 8.375 2.5625 8.375 1 10 C0.34 9.34 -0.32 8.68 -1 8 C-0.96712417 5.27130593 -0.43602229 2.7033382 0 0 Z " fill="#F0F112" transform="translate(122,14)"/>
<path d="M0 0 C2.64 0 5.28 0 8 0 C7.34 1.65 6.68 3.3 6 5 C6.66 5.33 7.32 5.66 8 6 C6.35 6 4.7 6 3 6 C2.34 4.35 1.68 2.7 1 1 C1 2.65 1 4.3 1 6 C0.67 6 0.34 6 0 6 C0 4.02 0 2.04 0 0 Z " fill="#5E5F2B" transform="translate(114,38)"/>
<path d="M0 0 C0.99 0 1.98 0 3 0 C3 1.65 3 3.3 3 5 C3.66 5 4.32 5 5 5 C5 3.35 5 1.7 5 0 C6.32 0.33 7.64 0.66 9 1 C8.34 2.32 7.68 3.64 7 5 C7.66 5.33 8.32 5.66 9 6 C5.37 6 1.74 6 -2 6 C-1.34 5.67 -0.68 5.34 0 5 C0 3.35 0 1.7 0 0 Z " fill="#525226" transform="translate(186,38)"/>
<path d="M0 0 C-0.33 1.65 -0.66 3.3 -1 5 C-1.99 5 -2.98 5 -4 5 C-4.66 6.65 -5.32 8.3 -6 10 C-8 7 -8 7 -7.625 4.8125 C-7.41875 4.214375 -7.2125 3.61625 -7 3 C-5.02 3.495 -5.02 3.495 -3 4 C-3 3.34 -3 2.68 -3 2 C-3.99 1.67 -4.98 1.34 -6 1 C-4 0 -4 0 0 0 Z " fill="#4E511B" transform="translate(191,144)"/>
<path d="M0 0 C0.94875 0.04125 1.8975 0.0825 2.875 0.125 C3.205 1.445 3.535 2.765 3.875 4.125 C3.111875 3.939375 2.34875 3.75375 1.5625 3.5625 C-1.21467375 2.89680827 -1.21467375 2.89680827 -4.125 4.125 C-4.125 6.435 -4.125 8.745 -4.125 11.125 C-4.455 11.125 -4.785 11.125 -5.125 11.125 C-5.17899736 9.66707116 -5.21779177 8.20857288 -5.25 6.75 C-5.28480469 5.53183594 -5.28480469 5.53183594 -5.3203125 4.2890625 C-4.98150185 0.53504049 -3.58663539 0.14346542 0 0 Z " fill="#212211" transform="translate(92.125,91.875)"/>
<path d="M0 0 C0.66 0.66 1.32 1.32 2 2 C2.66 1.34 3.32 0.68 4 0 C4.99 0 5.98 0 7 0 C7 1.65 7 3.3 7 5 C2.545 5.495 2.545 5.495 -2 6 C-1.34 4.02 -0.68 2.04 0 0 Z " fill="#525229" transform="translate(222,80)"/>
<path d="M0 0 C0.66 0 1.32 0 2 0 C2 1.32 2 2.64 2 4 C4.97 4.33 7.94 4.66 11 5 C11 5.33 11 5.66 11 6 C4.4 6 -2.2 6 -9 6 C-9 5.67 -9 5.34 -9 5 C-7.329375 4.87625 -7.329375 4.87625 -5.625 4.75 C-1.94246056 4.42126213 -1.94246056 4.42126213 -0.5625 1.9375 C-0.376875 1.298125 -0.19125 0.65875 0 0 Z " fill="#5F6116" transform="translate(188,27)"/>
<path d="M0 0 C1.9453125 -0.29296875 1.9453125 -0.29296875 4.125 -0.1875 C5.40375 -0.125625 6.6825 -0.06375 8 0 C7.01 0.495 7.01 0.495 6 1 C5.64587656 2.32796291 5.31478446 3.66216607 5 5 C4.01 6.485 4.01 6.485 3 8 C3 6.68 3 5.36 3 4 C1.35 3.67 -0.3 3.34 -2 3 C-1.34 2.01 -0.68 1.02 0 0 Z " fill="#7C811C" transform="translate(116,13)"/>
<path d="M0 0 C-0.99 0.495 -0.99 0.495 -2 1 C-1.2236068 4.0745356 -1.2236068 4.0745356 1 6 C-1.66666667 6 -4.33333333 6 -7 6 C-7.33 4.35 -7.66 2.7 -8 1 C-5.07175348 0.02391783 -3.04386724 -0.08226668 0 0 Z " fill="#63642E" transform="translate(226,131)"/>
<path d="M0 0 C-0.53625 0.391875 -1.0725 0.78375 -1.625 1.1875 C-5.24047465 3.94667802 -8.78083854 6.78083854 -12 10 C-12.33 9.34 -12.66 8.68 -13 8 C-12.04578192 6.85073734 -11.08647955 5.70569459 -10.125 4.5625 C-9.59132813 3.92441406 -9.05765625 3.28632812 -8.5078125 2.62890625 C-5.83867929 -0.25458739 -3.77605122 -0.09936977 0 0 Z " fill="#0B0B0C" transform="translate(106,64)"/>
<path d="M0 0 C0 0.66 0 1.32 0 2 C-1.61992165 2.86375896 -3.24611861 3.71575854 -4.875 4.5625 C-6.23238281 5.27599609 -6.23238281 5.27599609 -7.6171875 6.00390625 C-8.40351563 6.33261719 -9.18984375 6.66132813 -10 7 C-10.66 6.67 -11.32 6.34 -12 6 C-8.82952065 2.30110743 -4.90226152 0 0 0 Z " fill="#222212" transform="translate(180,126)"/>
<path d="M0 0 C0.66 0 1.32 0 2 0 C2.13277344 0.60328125 2.26554687 1.2065625 2.40234375 1.828125 C2.57894531 2.62734375 2.75554687 3.4265625 2.9375 4.25 C3.11152344 5.03890625 3.28554687 5.8278125 3.46484375 6.640625 C3.947556 8.76878703 4.46163178 10.88532842 5 13 C3.68 12.67 2.36 12.34 1 12 C0.67 8.04 0.34 4.08 0 0 Z " fill="#1E1F0F" transform="translate(62,98)"/>
<path d="M0 0 C2.31 0 4.62 0 7 0 C6.67 1.98 6.34 3.96 6 6 C3 6 3 6 0 5 C0.66 5 1.32 5 2 5 C2 4.34 2 3.68 2 3 C1.34 3 0.68 3 0 3 C0 2.01 0 1.02 0 0 Z " fill="#6E6E24" transform="translate(213,80)"/>
<path d="M0 0 C0 0.66 0 1.32 0 2 C0.66 2 1.32 2 2 2 C1.67 3.32 1.34 4.64 1 6 C0.01 6 -0.98 6 -2 6 C-2 5.34 -2 4.68 -2 4 C-3.32 3.67 -4.64 3.34 -6 3 C-4.60722783 0.21445565 -3.01148006 0 0 0 Z " fill="#68692E" transform="translate(86,167)"/>
<path d="M0 0 C1.32 0 2.64 0 4 0 C4 1.98 4 3.96 4 6 C2.35 6 0.7 6 -1 6 C-1.042721 4.33388095 -1.04063832 2.66617115 -1 1 C-0.67 0.67 -0.34 0.34 0 0 Z " fill="#7E7F26" transform="translate(43,131)"/>
<path d="M0 0 C0.87527344 -0.01417969 1.75054687 -0.02835938 2.65234375 -0.04296875 C5.0625 0.1875 5.0625 0.1875 8.0625 2.1875 C5.27648777 3.11617074 3.45183911 3.35092217 0.5625 3.375 C-0.59765625 3.39626953 -0.59765625 3.39626953 -1.78125 3.41796875 C-3.9375 3.1875 -3.9375 3.1875 -6.9375 1.1875 C-4.47380468 -0.04434766 -2.7480499 0.02017658 0 0 Z " fill="#272714" transform="translate(109.9375,61.8125)"/>
<path d="M0 0 C0 1.66666667 0 3.33333333 0 5 C-2.97 4.505 -2.97 4.505 -6 4 C-6 2.68 -6 1.36 -6 0 C-3.50907189 -1.24546405 -2.58919267 -0.7767578 0 0 Z " fill="#9B9B28" transform="translate(199,39)"/>
<path d="M0 0 C2.31 0 4.62 0 7 0 C7 1.98 7 3.96 7 6 C5.68 5.67 4.36 5.34 3 5 C3 4.01 3 3.02 3 2 C2.01 1.67 1.02 1.34 0 1 C0 0.67 0 0.34 0 0 Z " fill="#7E7E2A" transform="translate(172,167)"/>
<path d="M0 0 C1.65 0 3.3 0 5 0 C5 1.98 5 3.96 5 6 C3.35 6 1.7 6 0 6 C0 4.02 0 2.04 0 0 Z " fill="#070809" transform="translate(175,151)"/>
<path d="M0 0 C3.63 0 7.26 0 11 0 C11 0.66 11 1.32 11 2 C9.56274129 2.16873478 8.12518162 2.33490737 6.6875 2.5 C5.88699219 2.5928125 5.08648437 2.685625 4.26171875 2.78125 C2 3 2 3 -1 3 C-0.67 2.01 -0.34 1.02 0 0 Z " fill="#1A1B0B" transform="translate(222,110)"/>
<path d="M0 0 C0.33 0 0.66 0 1 0 C1.33 1.98 1.66 3.96 2 6 C2.33 6 2.66 6 3 6 C3 7.98 3 9.96 3 12 C1.68 12.33 0.36 12.66 -1 13 C-0.67 8.71 -0.34 4.42 0 0 Z " fill="#D0D015" transform="translate(202,95)"/>
<path d="M0 0 C1.98 0 3.96 0 6 0 C6 1.65 6 3.3 6 5 C5.01 5.33 4.02 5.66 3 6 C0 2.25 0 2.25 0 0 Z " fill="#393A17" transform="translate(76,64)"/>
<path d="M0 0 C-1.32 0.33 -2.64 0.66 -4 1 C-4 2.65 -4 4.3 -4 6 C-5.32 6 -6.64 6 -8 6 C-8.33 4.02 -8.66 2.04 -9 0 C-5.52176885 -1.15941038 -3.54104422 -0.70820884 0 0 Z " fill="#EFF124" transform="translate(195,37)"/>
<path d="M0 0 C0.99 0 1.98 0 3 0 C3 1.32 3 2.64 3 4 C6.3 4 9.6 4 13 4 C13 4.33 13 4.66 13 5 C8.38 5 3.76 5 -1 5 C-0.67 3.35 -0.34 1.7 0 0 Z " fill="#8D9225" transform="translate(225,70)"/>
<path d="M0 0 C1.65 0 3.3 0 5 0 C5 1.65 5 3.3 5 5 C3.35 5.33 1.7 5.66 0 6 C0 4.02 0 2.04 0 0 Z " fill="#5F602A" transform="translate(179,38)"/>
<path d="M0 0 C2.31 0 4.62 0 7 0 C6.01 0.495 6.01 0.495 5 1 C5 2.32 5 3.64 5 5 C5.66 5.33 6.32 5.66 7 6 C2.25 6.125 2.25 6.125 0 5 C0 3.35 0 1.7 0 0 Z " fill="#434426" transform="translate(95,38)"/>
<path d="M0 0 C1.98 0 3.96 0 6 0 C5.75 1.875 5.75 1.875 5 4 C2.9375 5.25 2.9375 5.25 1 6 C0.67 4.02 0.34 2.04 0 0 Z " fill="#A8AA2B" transform="translate(87,167)"/>
<path d="M0 0 C0.33 0 0.66 0 1 0 C1 5.61 1 11.22 1 17 C1.66 17 2.32 17 3 17 C3 17.99 3 18.98 3 20 C2.01 19.67 1.02 19.34 0 19 C0 12.73 0 6.46 0 0 Z " fill="#ADAF21" transform="translate(29,100)"/>
<path d="M0 0 C-2.52956528 3.0916909 -5.22454612 3.90931332 -9 5 C-9 4.01 -9 3.02 -9 2 C-3.375 -1.125 -3.375 -1.125 0 0 Z " fill="#161809" transform="translate(58,38)"/>
<path d="M0 0 C-0.33 0.66 -0.66 1.32 -1 2 C-3.75078884 2.91692961 -5.35948913 3.10886083 -8.1875 3.0625 C-10.0746875 3.0315625 -10.0746875 3.0315625 -12 3 C-12 2.34 -12 1.68 -12 1 C-7.95858806 0.36605303 -4.0934693 -0.12404452 0 0 Z " fill="#1A1A10" transform="translate(194,120)"/>
<path d="M0 0 C2 2 2 2 2.1953125 4.3828125 C2.17210937 5.28773437 2.14890625 6.19265625 2.125 7.125 C2.10695312 8.03507812 2.08890625 8.94515625 2.0703125 9.8828125 C2.04710937 10.58148438 2.02390625 11.28015625 2 12 C1.67 12 1.34 12 1 12 C0.67 9.69 0.34 7.38 0 5 C-0.66 5.66 -1.32 6.32 -2 7 C-2 3 -2 3 0 0 Z " fill="#AFB11E" transform="translate(237,114)"/>
<path d="M0 0 C-1.65 0.66 -3.3 1.32 -5 2 C-4.34 2.66 -3.68 3.32 -3 4 C-4.98 4.66 -6.96 5.32 -9 6 C-9 4.35 -9 2.7 -9 1 C-5.57367167 -0.61798838 -3.61944899 -1.34053666 0 0 Z " fill="#D5D51F" transform="translate(87,76)"/>
<path d="M0 0 C0.33 0.99 0.66 1.98 1 3 C-1.64 3.99 -4.28 4.98 -7 6 C-6 2 -6 2 -4.0625 0.75 C-2 0 -2 0 0 0 Z " fill="#1B1C09" transform="translate(44,51)"/>
<path d="M0 0 C2.31 0 4.62 0 7 0 C6.01 0.33 5.02 0.66 4 1 C4 2.98 4 4.96 4 7 C3.01 6.67 2.02 6.34 1 6 C0.67 4.02 0.34 2.04 0 0 Z " fill="#B5B62E" transform="translate(110,37)"/>
<path d="M0 0 C-3.20336822 2.83374881 -5.78087253 3.5205537 -10 4 C-10 3.34 -10 2.68 -10 2 C-3.375 -1.125 -3.375 -1.125 0 0 Z " fill="#202112" transform="translate(152,131)"/>
<path d="M0 0 C0.99 0.33 1.98 0.66 3 1 C3 3.31 3 5.62 3 8 C2.01 8 1.02 8 0 8 C0 5.36 0 2.72 0 0 Z " fill="#E5E51B" transform="translate(101,94)"/>
<path d="M0 0 C1.32 0.33 2.64 0.66 4 1 C3.01 1.495 3.01 1.495 2 2 C2 3.65 2 5.3 2 7 C0.68 6.67 -0.64 6.34 -2 6 C-1.34 4.02 -0.68 2.04 0 0 Z " fill="#A9AA29" transform="translate(136,37)"/>
<path d="M0 0 C1.134375 0.020625 2.26875 0.04125 3.4375 0.0625 C2.4475 0.3925 1.4575 0.7225 0.4375 1.0625 C0.4375 3.0425 0.4375 5.0225 0.4375 7.0625 C-0.5525 7.0625 -1.5425 7.0625 -2.5625 7.0625 C-2.5625 5.4125 -2.5625 3.7625 -2.5625 2.0625 C-3.2225 1.7325 -3.8825 1.4025 -4.5625 1.0625 C-3.5625 0.0625 -3.5625 0.0625 0 0 Z " fill="#969723" transform="translate(75.5625,165.9375)"/>
<path d="M0 0 C0.33 0 0.66 0 1 0 C2.51708428 9.41002278 2.51708428 9.41002278 0 14 C-0.66 13.67 -1.32 13.34 -2 13 C-1.34 8.71 -0.68 4.42 0 0 Z " fill="#262615" transform="translate(200,95)"/>
<path d="M0 0 C0 0.66 0 1.32 0 2 C-5.625 5 -5.625 5 -9 5 C-8.67 4.01 -8.34 3.02 -8 2 C-5.10441559 0.5522078 -3.25811062 0 0 0 Z " fill="#070806" transform="translate(64,51)"/>
<path d="M0 0 C0.99 0.66 1.98 1.32 3 2 C-3.625 5 -3.625 5 -7 5 C-6.67 4.01 -6.34 3.02 -6 2 C-3.125 0.6875 -3.125 0.6875 0 0 Z " fill="#070807" transform="translate(51,48)"/>
<path d="M0 0 C3.875 1.75 3.875 1.75 5 4 C4.67 4.66 4.34 5.32 4 6 C2.35 5.67 0.7 5.34 -1 5 C-0.67 3.35 -0.34 1.7 0 0 Z " fill="#19190F" transform="translate(121,48)"/>
<path d="M0 0 C1.32 0.33 2.64 0.66 4 1 C4 2.65 4 4.3 4 6 C2.68 6 1.36 6 0 6 C0 4.02 0 2.04 0 0 Z " fill="#6A6B2B" transform="translate(162,167)"/>
<path d="M0 0 C0.33 0 0.66 0 1 0 C1.33 1.98 1.66 3.96 2 6 C0.68 6.99 -0.64 7.98 -2 9 C-2.33 7.35 -2.66 5.7 -3 4 C-2.34 4 -1.68 4 -1 4 C-0.67 2.68 -0.34 1.36 0 0 Z " fill="#010104" transform="translate(107,136)"/>
<path d="M0 0 C0.99 0 1.98 0 3 0 C2.125 3.875 2.125 3.875 1 5 C-0.66617115 5.04063832 -2.33388095 5.042721 -4 5 C-3.67 4.01 -3.34 3.02 -3 2 C-2.01 2 -1.02 2 0 2 C0 1.34 0 0.68 0 0 Z " fill="#1A1B12" transform="translate(174,100)"/>
<path d="M0 0 C1.09570312 0.10183594 2.19140625 0.20367187 3.3203125 0.30859375 C4.16335937 0.39238281 5.00640625 0.47617188 5.875 0.5625 C5.875 0.8925 5.875 1.2225 5.875 1.5625 C5.11574219 1.62308594 4.35648438 1.68367188 3.57421875 1.74609375 C2.58035156 1.82988281 1.58648437 1.91367188 0.5625 2 C-0.91669922 2.12181641 -0.91669922 2.12181641 -2.42578125 2.24609375 C-5.21875599 2.48062559 -5.21875599 2.48062559 -8.125 3.5625 C-8.125 2.5725 -8.125 1.5825 -8.125 0.5625 C-5.28943413 -0.85528293 -3.1341294 -0.30007622 0 0 Z " fill="#44441E" transform="translate(87.125,80.4375)"/>
<path d="M0 0 C1.32 0 2.64 0 4 0 C4 1.32 4 2.64 4 4 C3.34 4 2.68 4 2 4 C2 4.66 2 5.32 2 6 C1.34 6 0.68 6 0 6 C0 4.02 0 2.04 0 0 Z " fill="#7C7C32" transform="translate(27,131)"/>
<path d="M0 0 C1.98 0.495 1.98 0.495 4 1 C3.67 2.32 3.34 3.64 3 5 C1.68 5 0.36 5 -1 5 C-0.67 3.35 -0.34 1.7 0 0 Z " fill="#17170E" transform="translate(60,120)"/>
<path d="M0 0 C2.25 -0.25 2.25 -0.25 5 0 C7.3125 1.875 7.3125 1.875 9 4 C9 4.66 9 5.32 9 6 C5.56404834 4.47291037 2.88087546 2.40072955 0 0 Z " fill="#1B1B10" transform="translate(174,69)"/>
<path d="M0 0 C2.475 0.495 2.475 0.495 5 1 C5 2.98 5 4.96 5 7 C3.68 6.67 2.36 6.34 1 6 C0.67 4.02 0.34 2.04 0 0 Z " fill="#CED02F" transform="translate(99,37)"/>
<path d="M0 0 C3 1 3 1 5 4 C5 4.99 5 5.98 5 7 C3.68 6.67 2.36 6.34 1 6 C0.67 4.02 0.34 2.04 0 0 Z " fill="#1B1C09" transform="translate(197,27)"/>
<path d="M0 0 C2.64 0 5.28 0 8 0 C7.67 0.66 7.34 1.32 7 2 C6.01 2 5.02 2 4 2 C3.67 2.99 3.34 3.98 3 5 C1.5 3.625 1.5 3.625 0 2 C0 1.34 0 0.68 0 0 Z " fill="#020206" transform="translate(161,131)"/>
<path d="M0 0 C0 0.66 0 1.32 0 2 C-3.3 1.67 -6.6 1.34 -10 1 C-6.1496895 -1.56687367 -4.41430237 -0.83288724 0 0 Z " fill="#2C2D16" transform="translate(89,124)"/>
<path d="M0 0 C2.64 0 5.28 0 8 0 C7.67 0.99 7.34 1.98 7 3 C4.69 3 2.38 3 0 3 C0 2.01 0 1.02 0 0 Z " fill="#80821E" transform="translate(225,62)"/>
<path d="M0 0 C5.75 1.875 5.75 1.875 8 3 C8 3.66 8 4.32 8 5 C4.62537285 4.45276317 2.91765 3.9451 0 2 C0 1.34 0 0.68 0 0 Z " fill="#1C1C10" transform="translate(173,60)"/>
<path d="M0 0 C0.99 0.33 1.98 0.66 3 1 C1.515 4.465 1.515 4.465 0 8 C-0.33 8 -0.66 8 -1 8 C-1.04241723 5.66705225 -1.04092937 3.33297433 -1 1 C-0.67 0.67 -0.34 0.34 0 0 Z " fill="#050504" transform="translate(85,144)"/>
<path d="M0 0 C2.475 0.495 2.475 0.495 5 1 C5 2.65 5 4.3 5 6 C4.01 5.67 3.02 5.34 2 5 C0.8125 2.4375 0.8125 2.4375 0 0 Z " fill="#9A9B31" transform="translate(240,131)"/>
<path d="M0 0 C0.99 0.33 1.98 0.66 3 1 C1.8125 3 1.8125 3 0 5 C-2.6875 5.25 -2.6875 5.25 -5 5 C-3.35 3.35 -1.7 1.7 0 0 Z " fill="#333419" transform="translate(150,121)"/>
<path d="M0 0 C0.99 0 1.98 0 3 0 C1.25 4.875 1.25 4.875 -1 6 C-1 5.34 -1 4.68 -1 4 C-1.66 3.67 -2.32 3.34 -3 3 C-2.34 3 -1.68 3 -1 3 C-0.67 2.01 -0.34 1.02 0 0 Z " fill="#030305" transform="translate(232,116)"/>
<path d="M0 0 C2.34058637 2.12780579 3.70700306 4.11562221 5 7 C3.35 7 1.7 7 0 7 C0 4.69 0 2.38 0 0 Z " fill="#ABAC2C" transform="translate(159,98)"/>
<path d="M0 0 C0.66 0 1.32 0 2 0 C2.33 2.64 2.66 5.28 3 8 C2.01 8 1.02 8 0 8 C0 5.36 0 2.72 0 0 Z " fill="#010104" transform="translate(88,96)"/>
<path d="M0 0 C0 0.99 0 1.98 0 3 C-2.64 3 -5.28 3 -8 3 C-8 2.34 -8 1.68 -8 1 C-2.25 0 -2.25 0 0 0 Z " fill="#585B1C" transform="translate(237,70)"/>
<path d="M0 0 C2.31 0 4.62 0 7 0 C7.33 0.99 7.66 1.98 8 3 C5.36 3 2.72 3 0 3 C0 2.01 0 1.02 0 0 Z " fill="#83851C" transform="translate(225,66)"/>
<path d="M0 0 C1.65 0 3.3 0 5 0 C4.67 1.98 4.34 3.96 4 6 C3.01 6 2.02 6 1 6 C0.67 4.02 0.34 2.04 0 0 Z " fill="#E2E32B" transform="translate(128,37)"/>
<path d="M0 0 C0.598125 0.20625 1.19625 0.4125 1.8125 0.625 C1.049375 1.0375 0.28625 1.45 -0.5 1.875 C-3.1241642 3.58375809 -4.49071976 5.03517753 -6.1875 7.625 C-5.875 4.75 -5.875 4.75 -5.1875 1.625 C-2.1875 -0.375 -2.1875 -0.375 0 0 Z " fill="#CBCD1D" transform="translate(92.1875,143.375)"/>
<path d="M0 0 C2.00720923 0.28674418 4.0085944 0.61866701 6 1 C6.33 1.99 6.66 2.98 7 4 C1.25 3.25 1.25 3.25 -1 1 C-0.67 0.67 -0.34 0.34 0 0 Z " fill="#303117" transform="translate(128,126)"/>
<path d="M0 0 C-1.15173355 2.46800047 -2.04783565 4.04783565 -4 6 C-4.99 5.67 -5.98 5.34 -7 5 C-2.25 0 -2.25 0 0 0 Z " fill="#0F0F0C" transform="translate(79,82)"/>
<path d="M0 0 C0.66 0 1.32 0 2 0 C2.103125 0.639375 2.20625 1.27875 2.3125 1.9375 C2.539375 2.618125 2.76625 3.29875 3 4 C3.99 4.33 4.98 4.66 6 5 C5.67 5.66 5.34 6.32 5 7 C4.01 6.67 3.02 6.34 2 6 C0.8125 2.9375 0.8125 2.9375 0 0 Z " fill="#313114" transform="translate(187,70)"/>
<path d="M0 0 C-0.66 2.64 -1.32 5.28 -2 8 C-2.33 6.68 -2.66 5.36 -3 4 C-3.66 3.67 -4.32 3.34 -5 3 C-5 2.34 -5 1.68 -5 1 C-2 0 -2 0 0 0 Z " fill="#DBDB21" transform="translate(93,71)"/>
<path d="M0 0 C0.66 0 1.32 0 2 0 C1.67 1.32 1.34 2.64 1 4 C0.34 4 -0.32 4 -1 4 C-1 5.32 -1 6.64 -1 8 C-1.66 8 -2.32 8 -3 8 C-2.45276317 4.62537285 -1.9451 2.91765 0 0 Z " fill="#1F200C" transform="translate(179,26)"/>
</svg>
